Muli-Semi-Bold.ufo
<glyph name="exclam" format="1">
  <advance width="648"/>
  <unicode hex="0021"/>
  <outline>
    <contour>
      <point x="263" y="383" type="line"/>
      <point x="197" y="1456" type="line"/>
      <point x="462" y="1456" type="line"/>
      <point x="396" y="383" type="line"/>
    </contour>
    <contour>
      <point x="208" y="0" type="line"/>
      <point x="208" y="251" type="line"/>
      <point x="452" y="251" type="line"/>
      <point x="452" y="0" type="line"/>
    </contour>
  </outline>
</glyph>
<glyph name="quotedbl" format="1">
  <advance width="737"/>
  <unicode hex="0022"/>
  <outline>
    <contour>
      <point x="472" y="959" type="line"/>
      <point x="423" y="1456" type="line"/>
      <point x="645" y="1456" type="line"/>
      <point x="602" y="959" type="line"/>
    </contour>
    <contour>
      <point x="143" y="959" type="line"/>
      <point x="94" y="1456" type="line"/>
      <point x="315" y="1456" type="line"/>
      <point x="272" y="959" type="line"/>
    </contour>
  </outline>
</glyph>
<glyph name="percent" format="1">
  <advance width="1845"/>
  <unicode hex="0025"/>
  <outline>
    <contour>
      <point x="1392" y="-22" type="curve" smooth="yes"/>
      <point x="1169" y="-22"/>
      <point x="1034" y="140"/>
      <point x="1034" y="355" type="curve" smooth="yes"/>
      <point x="1034" y="563"/>
      <point x="1169" y="732"/>
      <point x="1393" y="732" type="curve" smooth="yes"/>
      <point x="1618" y="732"/>
      <point x="1750" y="564"/>
      <point x="1750" y="355" type="curve" smooth="yes"/>
      <point x="1750" y="141"/>
      <point x="1615" y="-22"/>
    </contour>
    <contour>
      <point x="1393" y="122" type="curve" smooth="yes"/>
      <point x="1508" y="122"/>
      <point x="1559" y="201"/>
      <point x="1559" y="355" type="curve" smooth="yes"/>
      <point x="1559" y="502"/>
      <point x="1514" y="589"/>
      <point x="1393" y="589" type="curve" smooth="yes"/>
      <point x="1271" y="589"/>
      <point x="1226" y="500"/>
      <point x="1226" y="354" type="curve" smooth="yes"/>
      <point x="1226" y="199"/>
      <point x="1278" y="122"/>
    </contour>
    <contour>
      <point x="372" y="0" type="line"/>
      <point x="1297" y="1456" type="line"/>
      <point x="1484" y="1456" type="line"/>
      <point x="557" y="0" type="line"/>
    </contour>
    <contour>
      <point x="453" y="723" type="curve" smooth="yes"/>
      <point x="229" y="723"/>
      <point x="95" y="868"/>
      <point x="95" y="1100" type="curve" smooth="yes"/>
      <point x="95" y="1324"/>
      <point x="229" y="1478"/>
      <point x="453" y="1478" type="curve" smooth="yes"/>
      <point x="678" y="1478"/>
      <point x="811" y="1326"/>
      <point x="811" y="1100" type="curve" smooth="yes"/>
      <point x="811" y="869"/>
      <point x="676" y="723"/>
    </contour>
    <contour>
      <point x="453" y="867" type="curve" smooth="yes"/>
      <point x="568" y="867"/>
      <point x="620" y="946"/>
      <point x="620" y="1101" type="curve" smooth="yes"/>
      <point x="620" y="1247"/>
      <point x="574" y="1334"/>
      <point x="453" y="1334" type="curve" smooth="yes"/>
      <point x="332" y="1334"/>
      <point x="286" y="1246"/>
      <point x="286" y="1100" type="curve" smooth="yes"/>
      <point x="286" y="945"/>
      <point x="338" y="867"/>
    </contour>
  </outline>
</glyph>
<glyph name="ampersand" format="1">
  <advance width="1567"/>
  <unicode hex="0026"/>
  <outline>
    <contour>
      <point x="606" y="944" type="curve"/>
      <point x="697" y="1002"/>
      <point x="778" y="1072"/>
      <point x="778" y="1161" type="curve" smooth="yes"/>
      <point x="778" y="1256"/>
      <point x="704" y="1290"/>
      <point x="641" y="1290" type="curve" smooth="yes"/>
      <point x="562" y="1290"/>
      <point x="501" y="1248"/>
      <point x="501" y="1160" type="curve" smooth="yes"/>
      <point x="501" y="1079"/>
      <point x="539" y="1012"/>
    </contour>
    <contour>
      <point x="629" y="168" type="curve" smooth="yes"/>
      <point x="767" y="168"/>
      <point x="861" y="228"/>
      <point x="941" y="306" type="curve"/>
      <point x="565" y="710" type="line"/>
      <point x="447" y="643"/>
      <point x="344" y="565"/>
      <point x="344" y="419" type="curve" smooth="yes"/>
      <point x="344" y="273"/>
      <point x="463" y="168"/>
    </contour>
    <contour>
      <point x="628" y="-26" type="curve" smooth="yes"/>
      <point x="341" y="-26"/>
      <point x="119" y="139"/>
      <point x="119" y="418" type="curve" smooth="yes"/>
      <point x="119" y="634"/>
      <point x="270" y="752"/>
      <point x="439" y="852" type="curve"/>
      <point x="345" y="956"/>
      <point x="282" y="1041"/>
      <point x="282" y="1165" type="curve" smooth="yes"/>
      <point x="282" y="1368"/>
      <point x="441" y="1472"/>
      <point x="632" y="1472" type="curve" smooth="yes"/>
      <point x="814" y="1472"/>
      <point x="995" y="1377"/>
      <point x="995" y="1171" type="curve" smooth="yes"/>
      <point x="995" y="1020"/>
      <point x="875" y="898"/>
      <point x="737" y="811" type="curve"/>
      <point x="1059" y="459" type="line"/>
      <point x="1134" y="594"/>
      <point x="1170" y="759"/>
      <point x="1170" y="928" type="curve"/>
      <point x="1376" y="887" type="line"/>
      <point x="1375" y="682"/>
      <point x="1309" y="458"/>
      <point x="1203" y="300" type="curve"/>
      <point x="1291" y="208"/>
      <point x="1403" y="149"/>
      <point x="1516" y="117" type="curve"/>
      <point x="1369" y="-15" type="line"/>
      <point x="1239" y="6"/>
      <point x="1162" y="70"/>
      <point x="1074" y="163" type="curve"/>
      <point x="967" y="58"/>
      <point x="819" y="-26"/>
    </contour>
  </outline>
</glyph>
<glyph name="parenleft" format="1">
  <advance width="669"/>
  <unicode hex="0028"/>
  <outline>
    <contour>
      <point x="408" y="-171" type="line"/>
      <point x="249" y="70"/>
      <point x="126" y="372"/>
      <point x="126" y="665" type="curve" smooth="yes"/>
      <point x="126" y="972"/>
      <point x="235" y="1253"/>
      <point x="401" y="1516" type="curve"/>
      <point x="619" y="1516" type="line"/>
      <point x="448" y="1247"/>
      <point x="350" y="948"/>
      <point x="350" y="663" type="curve" smooth="yes"/>
      <point x="350" y="399"/>
      <point x="460" y="85"/>
      <point x="619" y="-171" type="curve"/>
    </contour>
  </outline>
</glyph>
<glyph name="slash" format="1">
  <advance width="838"/>
  <unicode hex="002F"/>
  <outline>
    <contour>
      <point x="35" y="-101" type="line"/>
      <point x="628" y="1456" type="line"/>
      <point x="832" y="1456" type="line"/>
      <point x="234" y="-101" type="line"/>
    </contour>
  </outline>
</glyph>
<glyph name="one" format="1">
  <advance width="1256"/>
  <unicode hex="0031"/>
  <outline>
    <contour>
      <point x="289" y="0" type="line"/>
      <point x="289" y="182" type="line"/>
      <point x="558" y="182" type="line"/>
      <point x="558" y="1218" type="line"/>
      <point x="484" y="1180"/>
      <point x="375" y="1136"/>
      <point x="265" y="1098" type="curve"/>
      <point x="265" y="1306" type="line"/>
      <point x="370" y="1342"/>
      <point x="502" y="1405"/>
      <point x="591" y="1456" type="curve"/>
      <point x="788" y="1456" type="line"/>
      <point x="788" y="180" type="line"/>
      <point x="1050" y="180" type="line"/>
      <point x="1050" y="0" type="line"/>
    </contour>
  </outline>
</glyph>
<glyph name="two" format="1">
  <advance width="1256"/>
  <unicode hex="0032"/>
  <outline>
    <contour>
      <point x="602" y="1481" type="curve" smooth="yes"/>
      <point x="861" y="1481"/>
      <point x="1049" y="1315"/>
      <point x="1049" y="1025" type="curve" smooth="yes"/>
      <point x="1049" y="809"/>
      <point x="929" y="657"/>
      <point x="772" y="493" type="curve" smooth="yes"/>
      <point x="480" y="190" type="line"/>
      <point x="1041" y="190" type="line"/>
      <point x="1041" y="0" type="line"/>
      <point x="199" y="0" type="line"/>
      <point x="199" y="173" type="line"/>
      <point x="626" y="629" type="line" smooth="yes"/>
      <point x="766" y="778"/>
      <point x="827" y="876"/>
      <point x="827" y="1009" type="curve" smooth="yes"/>
      <point x="827" y="1192"/>
      <point x="731" y="1286"/>
      <point x="584" y="1286" type="curve" smooth="yes"/>
      <point x="397" y="1286"/>
      <point x="220" y="1158"/>
      <point x="219" y="1158" type="curve" smooth="yes"/>
      <point x="144" y="1339" type="line"/>
      <point x="144" y="1339"/>
      <point x="328" y="1481"/>
    </contour>
  </outline>
</glyph>
<glyph name="four" format="1">
  <advance width="1256"/>
  <unicode hex="0034"/>
  <outline>
    <contour>
      <point x="353" y="556" type="curve"/>
      <point x="740" y="556" type="line"/>
      <point x="740" y="1196" type="line"/>
      <point x="613" y="981"/>
      <point x="482" y="769"/>
    </contour>
    <contour>
      <point x="738" y="0" type="line"/>
      <point x="738" y="383" type="line"/>
      <point x="107" y="383" type="line"/>
      <point x="107" y="542" type="line"/>
      <point x="697" y="1456" type="line"/>
      <point x="961" y="1456" type="line"/>
      <point x="961" y="556" type="line"/>
      <point x="1186" y="556" type="line"/>
      <point x="1186" y="383" type="line"/>
      <point x="964" y="383" type="line"/>
      <point x="964" y="0" type="line"/>
    </contour>
  </outline>
</glyph>
<glyph name="six" format="1">
  <advance width="1256"/>
  <unicode hex="0036"/>
  <outline>
    <contour>
      <point x="672" y="174" type="curve" smooth="yes"/>
      <point x="830" y="174"/>
      <point x="928" y="302"/>
      <point x="928" y="469" type="curve" smooth="yes"/>
      <point x="928" y="636"/>
      <point x="845" y="766"/>
      <point x="679" y="766" type="curve" smooth="yes"/>
      <point x="512" y="766"/>
      <point x="404" y="645"/>
      <point x="404" y="481" type="curve" smooth="yes"/>
      <point x="404" y="288"/>
      <point x="527" y="174"/>
    </contour>
    <contour>
      <point x="675" y="-23" type="curve" smooth="yes"/>
      <point x="319" y="-23"/>
      <point x="148" y="267"/>
      <point x="148" y="696" type="curve" smooth="yes"/>
      <point x="148" y="1128"/>
      <point x="344" y="1483"/>
      <point x="728" y="1483" type="curve" smooth="yes"/>
      <point x="875" y="1483"/>
      <point x="999" y="1439"/>
      <point x="1086" y="1359" type="curve"/>
      <point x="1010" y="1188" type="line"/>
      <point x="928" y="1253"/>
      <point x="834" y="1286"/>
      <point x="730" y="1286" type="curve" smooth="yes"/>
      <point x="516" y="1286"/>
      <point x="401" y="1061"/>
      <point x="389" y="790" type="curve"/>
      <point x="465" y="900"/>
      <point x="573" y="954"/>
      <point x="703" y="954" type="curve" smooth="yes"/>
      <point x="979" y="954"/>
      <point x="1165" y="767"/>
      <point x="1165" y="472" type="curve" smooth="yes"/>
      <point x="1165" y="191"/>
      <point x="977" y="-23"/>
    </contour>
  </outline>
</glyph>
<glyph name="eight" format="1">
  <advance width="1258"/>
  <unicode hex="0038"/>
  <outline>
    <contour>
      <point x="630" y="852" type="curve"/>
      <point x="773" y="890"/>
      <point x="861" y="980"/>
      <point x="861" y="1107" type="curve" smooth="yes"/>
      <point x="861" y="1226"/>
      <point x="755" y="1292"/>
      <point x="629" y="1292" type="curve" smooth="yes"/>
      <point x="499" y="1292"/>
      <point x="398" y="1229"/>
      <point x="398" y="1099" type="curve" smooth="yes"/>
      <point x="398" y="978"/>
      <point x="487" y="887"/>
    </contour>
    <contour>
      <point x="631" y="169" type="curve" smooth="yes"/>
      <point x="785" y="169"/>
      <point x="892" y="242"/>
      <point x="892" y="397" type="curve" smooth="yes"/>
      <point x="892" y="526"/>
      <point x="778" y="642"/>
      <point x="635" y="676" type="curve"/>
      <point x="485" y="643"/>
      <point x="372" y="537"/>
      <point x="372" y="395" type="curve" smooth="yes"/>
      <point x="372" y="249"/>
      <point x="476" y="169"/>
    </contour>
    <contour>
      <point x="633" y="-23" type="curve" smooth="yes"/>
      <point x="360" y="-23"/>
      <point x="141" y="126"/>
      <point x="141" y="389" type="curve" smooth="yes"/>
      <point x="141" y="558"/>
      <point x="245" y="693"/>
      <point x="410" y="764" type="curve"/>
      <point x="271" y="832"/>
      <point x="172" y="943"/>
      <point x="172" y="1103" type="curve" smooth="yes"/>
      <point x="172" y="1342"/>
      <point x="368" y="1483"/>
      <point x="628" y="1483" type="curve" smooth="yes"/>
      <point x="906" y="1483"/>
      <point x="1089" y="1338"/>
      <point x="1089" y="1096" type="curve" smooth="yes"/>
      <point x="1089" y="935"/>
      <point x="995" y="823"/>
      <point x="854" y="761" type="curve"/>
      <point x="1008" y="694"/>
      <point x="1121" y="549"/>
      <point x="1121" y="383" type="curve" smooth="yes"/>
      <point x="1121" y="121"/>
      <point x="888" y="-23"/>
    </contour>
  </outline>
</glyph>
<glyph name="nine" format="1">
  <advance width="1256"/>
  <unicode hex="0039"/>
  <outline>
    <contour>
      <point x="605" y="716" type="curve" smooth="yes"/>
      <point x="763" y="716"/>
      <point x="877" y="817"/>
      <point x="877" y="1008" type="curve" smooth="yes"/>
      <point x="877" y="1154"/>
      <point x="786" y="1286"/>
      <point x="618" y="1286" type="curve" smooth="yes"/>
      <point x="455" y="1286"/>
      <point x="355" y="1168"/>
      <point x="355" y="1000" type="curve" smooth="yes"/>
      <point x="355" y="840"/>
      <point x="432" y="716"/>
    </contour>
    <contour>
      <point x="562" y="-24" type="curve" smooth="yes"/>
      <point x="451" y="-24"/>
      <point x="329" y="5"/>
      <point x="193" y="73" type="curve"/>
      <point x="273" y="259" type="line"/>
      <point x="364" y="203"/>
      <point x="456" y="174"/>
      <point x="545" y="174" type="curve" smooth="yes"/>
      <point x="734" y="174"/>
      <point x="884" y="315"/>
      <point x="884" y="637" type="curve" smooth="yes"/>
      <point x="884" y="675" type="line"/>
      <point x="817" y="564"/>
      <point x="702" y="525"/>
      <point x="580" y="525" type="curve" smooth="yes"/>
      <point x="298" y="525"/>
      <point x="123" y="718"/>
      <point x="123" y="995" type="curve" smooth="yes"/>
      <point x="123" y="1271"/>
      <point x="310" y="1483"/>
      <point x="613" y="1483" type="curve" smooth="yes"/>
      <point x="936" y="1483"/>
      <point x="1113" y="1238"/>
      <point x="1113" y="771" type="curve" smooth="yes"/>
      <point x="1113" y="275"/>
      <point x="904" y="-24"/>
    </contour>
  </outline>
</glyph>
<glyph name="question" format="1">
  <advance width="1034"/>
  <unicode hex="003F"/>
  <outline>
    <contour>
      <point x="305" y="0" type="line"/>
      <point x="305" y="251" type="line"/>
      <point x="550" y="251" type="line"/>
      <point x="550" y="0" type="line"/>
    </contour>
    <contour>
      <point x="331" y="399" type="line"/>
      <point x="331" y="538" type="line" smooth="yes"/>
      <point x="331" y="794"/>
      <point x="691" y="910"/>
      <point x="691" y="1119" type="curve" smooth="yes"/>
      <point x="691" y="1241"/>
      <point x="593" y="1288"/>
      <point x="470" y="1288" type="curve" smooth="yes"/>
      <point x="351" y="1288"/>
      <point x="222" y="1242"/>
      <point x="174" y="1218" type="curve"/>
      <point x="174" y="1413" type="line"/>
      <point x="211" y="1431"/>
      <point x="331" y="1483"/>
      <point x="493" y="1483" type="curve" smooth="yes"/>
      <point x="728" y="1483"/>
      <point x="924" y="1367"/>
      <point x="924" y="1126" type="curve" smooth="yes"/>
      <point x="924" y="825"/>
      <point x="512" y="739"/>
      <point x="512" y="476" type="curve" smooth="yes"/>
      <point x="512" y="399" type="line"/>
    </contour>
  </outline>
</glyph>
<glyph name="at" format="1">
  <advance width="1796"/>
  <unicode hex="0040"/>
  <outline>
    <contour>
      <point x="840" y="432" type="curve" smooth="yes"/>
      <point x="984" y="432"/>
      <point x="1090" y="625"/>
      <point x="1090" y="821" type="curve" smooth="yes"/>
      <point x="1090" y="916"/>
      <point x="1037" y="975"/>
      <point x="955" y="975" type="curve" smooth="yes"/>
      <point x="798" y="975"/>
      <point x="698" y="764"/>
      <point x="698" y="593" type="curve" smooth="yes"/>
      <point x="698" y="497"/>
      <point x="756" y="432"/>
    </contour>
    <contour>
      <point x="937" y="-97" type="curve" smooth="yes"/>
      <point x="467" y="-97"/>
      <point x="106" y="198"/>
      <point x="106" y="671" type="curve" smooth="yes"/>
      <point x="106" y="1175"/>
      <point x="494" y="1481"/>
      <point x="954" y="1481" type="curve" smooth="yes"/>
      <point x="1369" y="1481"/>
      <point x="1690" y="1198"/>
      <point x="1690" y="795" type="curve" smooth="yes"/>
      <point x="1690" y="525"/>
      <point x="1521" y="254"/>
      <point x="1318" y="254" type="curve" smooth="yes"/>
      <point x="1179" y="254"/>
      <point x="1103" y="340"/>
      <point x="1103" y="462" type="curve"/>
      <point x="1064" y="351"/>
      <point x="963" y="260"/>
      <point x="811" y="260" type="curve" smooth="yes"/>
      <point x="656" y="260"/>
      <point x="481" y="380"/>
      <point x="481" y="620" type="curve" smooth="yes"/>
      <point x="481" y="926"/>
      <point x="730" y="1138"/>
      <point x="931" y="1138" type="curve" smooth="yes"/>
      <point x="1032" y="1138"/>
      <point x="1111" y="1102"/>
      <point x="1141" y="1014" type="curve"/>
      <point x="1163" y="1116" type="line"/>
      <point x="1357" y="1116" type="line"/>
      <point x="1260" y="628" type="line" smooth="yes"/>
      <point x="1242" y="535"/>
      <point x="1238" y="495"/>
      <point x="1238" y="458" type="curve" smooth="yes"/>
      <point x="1238" y="421"/>
      <point x="1256" y="371"/>
      <point x="1301" y="371" type="curve" smooth="yes"/>
      <point x="1397" y="371"/>
      <point x="1540" y="550"/>
      <point x="1540" y="800" type="curve" smooth="yes"/>
      <point x="1540" y="1154"/>
      <point x="1260" y="1332"/>
      <point x="960" y="1332" type="curve" smooth="yes"/>
      <point x="598" y="1332"/>
      <point x="292" y="1112"/>
      <point x="292" y="671" type="curve" smooth="yes"/>
      <point x="292" y="251"/>
      <point x="613" y="48"/>
      <point x="952" y="48" type="curve" smooth="yes"/>
      <point x="1116" y="48"/>
      <point x="1289" y="95"/>
      <point x="1434" y="190" type="curve"/>
      <point x="1511" y="86" type="line"/>
      <point x="1359" y="-37"/>
      <point x="1147" y="-97"/>
    </contour>
  </outline>
</glyph>
<glyph name="E" format="1">
  <advance width="1221"/>
  <unicode hex="0045"/>
  <outline>
    <contour>
      <point x="659" y="1456" type="move" name="top"/>
    </contour>
    <contour>
      <point x="194" y="0" type="line"/>
      <point x="194" y="1456" type="line"/>
      <point x="1095" y="1456" type="line"/>
      <point x="1095" y="1260" type="line"/>
      <point x="424" y="1260" type="line"/>
      <point x="424" y="849" type="line"/>
      <point x="1057" y="849" type="line"/>
      <point x="1057" y="652" type="line"/>
      <point x="425" y="652" type="line"/>
      <point x="425" y="196" type="line"/>
      <point x="1124" y="196" type="line"/>
      <point x="1124" y="0" type="line"/>
    </contour>
  </outline>
</glyph>
<glyph name="H" format="1">
  <advance width="1564"/>
  <unicode hex="0048"/>
  <outline>
    <contour>
      <point x="777" y="1456" type="move" name="top"/>
    </contour>
    <contour>
      <point x="194" y="0" type="line"/>
      <point x="194" y="1456" type="line"/>
      <point x="424" y="1456" type="line"/>
      <point x="424" y="845" type="line"/>
      <point x="1141" y="845" type="line"/>
      <point x="1141" y="1456" type="line"/>
      <point x="1371" y="1456" type="line"/>
      <point x="1371" y="0" type="line"/>
      <point x="1144" y="0" type="line"/>
      <point x="1144" y="649" type="line"/>
      <point x="427" y="649" type="line"/>
      <point x="427" y="0" type="line"/>
    </contour>
  </outline>
</glyph>
<glyph name="I" format="1">
  <advance width="596"/>
  <unicode hex="0049"/>
  <outline>
    <contour>
      <point x="312" y="1456" type="move" name="top"/>
    </contour>
    <contour>
      <point x="190" y="0" type="line"/>
      <point x="190" y="1456" type="line"/>
      <point x="420" y="1456" type="line"/>
      <point x="420" y="0" type="line"/>
    </contour>
  </outline>
</glyph>
<glyph name="J" format="1">
  <advance width="903"/>
  <unicode hex="004A"/>
  <outline>
    <contour>
      <point x="606" y="1456" type="move" name="top"/>
    </contour>
    <contour>
      <point x="329" y="-331" type="curve" smooth="yes"/>
      <point x="236" y="-331"/>
      <point x="133" y="-308"/>
      <point x="36" y="-273" type="curve"/>
      <point x="74" y="-96" type="line"/>
      <point x="152" y="-120"/>
      <point x="226" y="-136"/>
      <point x="291" y="-136" type="curve" smooth="yes"/>
      <point x="439" y="-136"/>
      <point x="482" y="-43"/>
      <point x="482" y="114" type="curve" smooth="yes"/>
      <point x="482" y="1456" type="line"/>
      <point x="712" y="1456" type="line"/>
      <point x="712" y="120" type="line" smooth="yes"/>
      <point x="712" y="-176"/>
      <point x="573" y="-331"/>
    </contour>
  </outline>
</glyph>
<glyph name="K" format="1">
  <advance width="1329"/>
  <unicode hex="004B"/>
  <outline>
    <contour>
      <point x="690" y="1456" type="move" name="top"/>
    </contour>
    <contour>
      <point x="194" y="0" type="line"/>
      <point x="194" y="1456" type="line"/>
      <point x="424" y="1456" type="line"/>
      <point x="424" y="812" type="line"/>
      <point x="1009" y="1456" type="line"/>
      <point x="1296" y="1456" type="line"/>
      <point x="649" y="753" type="line"/>
      <point x="1345" y="0" type="line"/>
      <point x="1049" y="0" type="line"/>
      <point x="425" y="667" type="line"/>
      <point x="425" y="0" type="line"/>
    </contour>
  </outline>
</glyph>
<glyph name="L" format="1">
  <advance width="1145"/>
  <unicode hex="004C"/>
  <outline>
    <contour>
      <point x="320" y="1026" type="move" name="caron.alt"/>
    </contour>
    <contour>
      <point x="348" y="1456" type="move" name="top"/>
    </contour>
    <contour>
      <point x="194" y="0" type="line"/>
      <point x="194" y="1456" type="line"/>
      <point x="424" y="1456" type="line"/>
      <point x="424" y="196" type="line"/>
      <point x="1098" y="196" type="line"/>
      <point x="1098" y="0" type="line"/>
    </contour>
  </outline>
</glyph>
<glyph name="N" format="1">
  <advance width="1616"/>
  <unicode hex="004E"/>
  <outline>
    <contour>
      <point x="823" y="1456" type="move" name="top"/>
    </contour>
    <contour>
      <point x="194" y="0" type="line"/>
      <point x="194" y="1456" type="line"/>
      <point x="439" y="1456" type="line"/>
      <point x="694" y="1081"/>
      <point x="953" y="711"/>
      <point x="1204" y="332" type="curve"/>
      <point x="1204" y="1456" type="line"/>
      <point x="1422" y="1456" type="line"/>
      <point x="1422" y="0" type="line"/>
      <point x="1176" y="0" type="line"/>
      <point x="920" y="374"/>
      <point x="657" y="741"/>
      <point x="407" y="1122" type="curve"/>
      <point x="407" y="0" type="line"/>
    </contour>
  </outline>
</glyph>
<glyph name="O" format="1">
  <advance width="1653"/>
  <unicode hex="004F"/>
  <outline>
    <contour>
      <point x="833" y="1456" type="move" name="top"/>
    </contour>
    <contour>
      <point x="830" y="-23" type="curve" smooth="yes"/>
      <point x="377" y="-23"/>
      <point x="106" y="273"/>
      <point x="106" y="733" type="curve" smooth="yes"/>
      <point x="106" y="1177"/>
      <point x="376" y="1483"/>
      <point x="833" y="1483" type="curve" smooth="yes"/>
      <point x="1273" y="1483"/>
      <point x="1547" y="1178"/>
      <point x="1547" y="733" type="curve" smooth="yes"/>
      <point x="1547" y="275"/>
      <point x="1282" y="-23"/>
    </contour>
    <contour>
      <point x="826" y="174" type="curve" smooth="yes"/>
      <point x="1143" y="174"/>
      <point x="1297" y="388"/>
      <point x="1297" y="733" type="curve" smooth="yes"/>
      <point x="1297" y="1064"/>
      <point x="1144" y="1286"/>
      <point x="830" y="1286" type="curve" smooth="yes"/>
      <point x="517" y="1286"/>
      <point x="354" y="1064"/>
      <point x="354" y="733" type="curve" smooth="yes"/>
      <point x="354" y="387"/>
      <point x="510" y="174"/>
    </contour>
  </outline>
</glyph>
<glyph name="Q" format="1">
  <advance width="1653"/>
  <unicode hex="0051"/>
  <outline>
    <contour>
      <point x="1247" y="-439" type="curve"/>
      <point x="1378" y="-299" type="line"/>
      <point x="1378" y="-299"/>
      <point x="1222" y="-129"/>
      <point x="1126" y="28" type="curve"/>
      <point x="1395" y="132"/>
      <point x="1547" y="387"/>
      <point x="1547" y="733" type="curve" smooth="yes"/>
      <point x="1547" y="1178"/>
      <point x="1273" y="1483"/>
      <point x="833" y="1483" type="curve" smooth="yes"/>
      <point x="376" y="1483"/>
      <point x="106" y="1177"/>
      <point x="106" y="733" type="curve" smooth="yes"/>
      <point x="106" y="273"/>
      <point x="377" y="-23"/>
      <point x="830" y="-23" type="curve" smooth="yes"/>
      <point x="862" y="-23"/>
      <point x="894" y="-21"/>
      <point x="925" y="-18" type="curve"/>
      <point x="1054" y="-238"/>
      <point x="1247" y="-439"/>
    </contour>
    <contour>
      <point x="826" y="174" type="curve" smooth="yes"/>
      <point x="510" y="174"/>
      <point x="354" y="387"/>
      <point x="354" y="733" type="curve" smooth="yes"/>
      <point x="354" y="1064"/>
      <point x="517" y="1286"/>
      <point x="830" y="1286" type="curve" smooth="yes"/>
      <point x="1144" y="1286"/>
      <point x="1297" y="1064"/>
      <point x="1297" y="733" type="curve" smooth="yes"/>
      <point x="1297" y="388"/>
      <point x="1143" y="174"/>
    </contour>
  </outline>
</glyph>
<glyph name="S" format="1">
  <advance width="1244"/>
  <unicode hex="0053"/>
  <outline>
    <contour>
      <point x="622" y="1456" type="move" name="top"/>
    </contour>
    <contour>
      <point x="617" y="-23" type="curve" smooth="yes"/>
      <point x="399" y="-23"/>
      <point x="204" y="60"/>
      <point x="121" y="143" type="curve"/>
      <point x="221" y="309" type="line"/>
      <point x="300" y="245"/>
      <point x="468" y="174"/>
      <point x="605" y="174" type="curve" smooth="yes"/>
      <point x="791" y="174"/>
      <point x="883" y="248"/>
      <point x="883" y="390" type="curve" smooth="yes"/>
      <point x="883" y="503"/>
      <point x="853" y="557"/>
      <point x="640" y="629" type="curve" smooth="yes"/>
      <point x="602" y="643"/>
      <point x="554" y="657"/>
      <point x="510" y="672" type="curve" smooth="yes"/>
      <point x="256" y="755"/>
      <point x="128" y="858"/>
      <point x="128" y="1091" type="curve" smooth="yes"/>
      <point x="128" y="1352"/>
      <point x="346" y="1483"/>
      <point x="623" y="1483" type="curve" smooth="yes"/>
      <point x="892" y="1483"/>
      <point x="1011" y="1413"/>
      <point x="1106" y="1321" type="curve"/>
      <point x="988" y="1167" type="line"/>
      <point x="904" y="1248"/>
      <point x="777" y="1286"/>
      <point x="655" y="1286" type="curve" smooth="yes"/>
      <point x="498" y="1286"/>
      <point x="373" y="1230"/>
      <point x="373" y="1100" type="curve" smooth="yes"/>
      <point x="373" y="982"/>
      <point x="406" y="938"/>
      <point x="603" y="871" type="curve" smooth="yes"/>
      <point x="643" y="858"/>
      <point x="694" y="842"/>
      <point x="738" y="827" type="curve" smooth="yes"/>
      <point x="1034" y="727"/>
      <point x="1127" y="618"/>
      <point x="1127" y="387" type="curve" smooth="yes"/>
      <point x="1127" y="96"/>
      <point x="885" y="-23"/>
    </contour>
  </outline>
</glyph>
<glyph name="U" format="1">
  <advance width="1503"/>
  <unicode hex="0055"/>
  <outline>
    <contour>
      <point x="749" y="1456" type="move" name="top"/>
    </contour>
    <contour>
      <point x="751" y="-23" type="curve" smooth="yes"/>
      <point x="287" y="-23"/>
      <point x="166" y="253"/>
      <point x="166" y="583" type="curve" smooth="yes"/>
      <point x="166" y="1456" type="line"/>
      <point x="396" y="1456" type="line"/>
      <point x="396" y="576" type="line" smooth="yes"/>
      <point x="396" y="280"/>
      <point x="534" y="174"/>
      <point x="752" y="174" type="curve" smooth="yes"/>
      <point x="966" y="174"/>
      <point x="1107" y="279"/>
      <point x="1107" y="575" type="curve" smooth="yes"/>
      <point x="1107" y="1456" type="line"/>
      <point x="1337" y="1456" type="line"/>
      <point x="1337" y="584" type="line" smooth="yes"/>
      <point x="1337" y="249"/>
      <point x="1208" y="-23"/>
    </contour>
  </outline>
</glyph>
<glyph name="W" format="1">
  <advance width="2052"/>
  <unicode hex="0057"/>
  <outline>
    <contour>
      <point x="1033" y="1456" type="move" name="top"/>
    </contour>
    <contour>
      <point x="424" y="0" type="line"/>
      <point x="16" y="1456" type="line"/>
      <point x="262" y="1456" type="line"/>
      <point x="363" y="1062"/>
      <point x="470" y="672"/>
      <point x="565" y="272" type="curve"/>
      <point x="674" y="676"/>
      <point x="802" y="1062"/>
      <point x="921" y="1456" type="curve"/>
      <point x="1145" y="1456" type="line"/>
      <point x="1423" y="562" type="line"/>
      <point x="1507" y="269" type="line"/>
      <point x="1598" y="670"/>
      <point x="1701" y="1060"/>
      <point x="1798" y="1456" type="curve"/>
      <point x="2036" y="1456" type="line"/>
      <point x="1638" y="0" type="line"/>
      <point x="1371" y="0" type="line"/>
      <point x="1027" y="1141" type="line"/>
      <point x="687" y="0" type="line"/>
    </contour>
  </outline>
</glyph>
<glyph name="Z" format="1">
  <advance width="1192"/>
  <unicode hex="005A"/>
  <outline>
    <contour>
      <point x="620" y="1456" type="move" name="top"/>
    </contour>
    <contour>
      <point x="81" y="0" type="line"/>
      <point x="81" y="124" type="line"/>
      <point x="788" y="1260" type="line"/>
      <point x="109" y="1260" type="line"/>
      <point x="109" y="1456" type="line"/>
      <point x="1103" y="1456" type="line"/>
      <point x="1103" y="1336" type="line"/>
      <point x="390" y="196" type="line"/>
      <point x="1100" y="196" type="line"/>
      <point x="1100" y="0" type="line"/>
    </contour>
  </outline>
</glyph>
<glyph name="bracketleft" format="1">
  <advance width="636"/>
  <unicode hex="005B"/>
  <outline>
    <contour>
      <point x="152" y="-184" type="line"/>
      <point x="152" y="1490" type="line"/>
      <point x="569" y="1490" type="line"/>
      <point x="569" y="1320" type="line"/>
      <point x="376" y="1320" type="line"/>
      <point x="376" y="-14" type="line"/>
      <point x="570" y="-14" type="line"/>
      <point x="570" y="-184" type="line"/>
    </contour>
  </outline>
</glyph>
<glyph name="backslash" format="1">
  <advance width="762"/>
  <unicode hex="005C"/>
  <outline>
    <contour>
      <point x="583" y="-48" type="line"/>
      <point x="-56" y="1456" type="line"/>
      <point x="167" y="1456" type="line"/>
      <point x="806" y="-48" type="line"/>
    </contour>
  </outline>
</glyph>
<glyph name="asciicircum" format="1">
  <advance width="1585"/>
  <unicode hex="005E"/>
  <outline>
    <contour>
      <point x="217" y="544" type="line"/>
      <point x="718" y="1456" type="line"/>
      <point x="861" y="1456" type="line"/>
      <point x="1368" y="544" type="line"/>
      <point x="1145" y="544" type="line"/>
      <point x="787" y="1205" type="line"/>
      <point x="444" y="544" type="line"/>
    </contour>
  </outline>
</glyph>
<glyph name="underscore" format="1">
  <advance width="984"/>
  <unicode hex="005F"/>
  <outline>
    <contour>
      <point x="-10" y="-260" type="line"/>
      <point x="-10" y="-83" type="line"/>
      <point x="995" y="-83" type="line"/>
      <point x="995" y="-260" type="line"/>
    </contour>
  </outline>
</glyph>
<glyph name="a" format="1">
  <advance width="1284"/>
  <unicode hex="0061"/>
  <outline>
    <contour>
      <point x="638" y="1026" type="move" name="top"/>
    </contour>
    <contour>
      <point x="632" y="159" type="curve" smooth="yes"/>
      <point x="836" y="159"/>
      <point x="923" y="311"/>
      <point x="923" y="517" type="curve" smooth="yes"/>
      <point x="923" y="720"/>
      <point x="830" y="871"/>
      <point x="629" y="871" type="curve" smooth="yes"/>
      <point x="422" y="871"/>
      <point x="328" y="719"/>
      <point x="328" y="515" type="curve" smooth="yes"/>
      <point x="328" y="316"/>
      <point x="421" y="159"/>
    </contour>
    <contour>
      <point x="601" y="-23" type="curve" smooth="yes"/>
      <point x="269" y="-23"/>
      <point x="104" y="237"/>
      <point x="104" y="506" type="curve" smooth="yes"/>
      <point x="104" y="792"/>
      <point x="282" y="1052"/>
      <point x="605" y="1052" type="curve" smooth="yes"/>
      <point x="746" y="1052"/>
      <point x="854" y="984"/>
      <point x="915" y="892" type="curve"/>
      <point x="915" y="1026" type="line"/>
      <point x="1134" y="1026" type="line"/>
      <point x="1134" y="0" type="line"/>
      <point x="911" y="0" type="line"/>
      <point x="911" y="154" type="line"/>
      <point x="853" y="53"/>
      <point x="744" y="-23"/>
    </contour>
  </outline>
</glyph>
<glyph name="c" format="1">
  <advance width="1073"/>
  <unicode hex="0063"/>
  <outline>
    <contour>
      <point x="626" y="1026" type="move" name="top"/>
    </contour>
    <contour>
      <point x="634" y="-23" type="curve" smooth="yes"/>
      <point x="301" y="-23"/>
      <point x="104" y="217"/>
      <point x="104" y="510" type="curve" smooth="yes"/>
      <point x="104" y="823"/>
      <point x="310" y="1052"/>
      <point x="635" y="1052" type="curve" smooth="yes"/>
      <point x="786" y="1052"/>
      <point x="907" y="1007"/>
      <point x="991" y="920" type="curve"/>
      <point x="912" y="774" type="line"/>
      <point x="852" y="827"/>
      <point x="765" y="870"/>
      <point x="655" y="870" type="curve" smooth="yes"/>
      <point x="461" y="870"/>
      <point x="337" y="739"/>
      <point x="337" y="511" type="curve" smooth="yes"/>
      <point x="337" y="299"/>
      <point x="458" y="159"/>
      <point x="657" y="159" type="curve" smooth="yes"/>
      <point x="785" y="159"/>
      <point x="874" y="218"/>
      <point x="922" y="254" type="curve"/>
      <point x="991" y="90" type="line"/>
      <point x="886" y="15"/>
      <point x="776" y="-23"/>
    </contour>
  </outline>
</glyph>
<glyph name="f" format="1">
  <advance width="784"/>
  <unicode hex="0066"/>
  <outline>
    <contour>
      <point x="378" y="1456" type="move" name="top"/>
    </contour>
    <contour>
      <point x="257" y="0" type="line"/>
      <point x="257" y="876" type="line"/>
      <point x="70" y="876" type="line"/>
      <point x="70" y="1026" type="line"/>
      <point x="257" y="1026" type="line"/>
      <point x="257" y="1080" type="line" smooth="yes"/>
      <point x="257" y="1360"/>
      <point x="294" y="1483"/>
      <point x="675" y="1483" type="curve" smooth="yes"/>
      <point x="726" y="1483" type="line"/>
      <point x="719" y="1310" type="line"/>
      <point x="499" y="1310"/>
      <point x="480" y="1278"/>
      <point x="480" y="1089" type="curve" smooth="yes"/>
      <point x="480" y="1026" type="line"/>
      <point x="717" y="1026" type="line"/>
      <point x="717" y="876" type="line"/>
      <point x="480" y="876" type="line"/>
      <point x="480" y="0" type="line"/>
    </contour>
  </outline>
</glyph>
<glyph name="h" format="1">
  <advance width="1227"/>
  <unicode hex="0068"/>
  <outline>
    <contour>
      <point x="740" y="1026" type="move" name="top"/>
    </contour>
    <contour>
      <point x="152" y="0" type="line"/>
      <point x="152" y="1469" type="line"/>
      <point x="376" y="1469" type="line"/>
      <point x="376" y="883" type="line"/>
      <point x="433" y="987"/>
      <point x="580" y="1052"/>
      <point x="699" y="1052" type="curve" smooth="yes"/>
      <point x="1011" y="1052"/>
      <point x="1085" y="796"/>
      <point x="1085" y="589" type="curve" smooth="yes"/>
      <point x="1085" y="0" type="line"/>
      <point x="861" y="0" type="line"/>
      <point x="861" y="593" type="line" smooth="yes"/>
      <point x="861" y="792"/>
      <point x="797" y="871"/>
      <point x="665" y="871" type="curve" smooth="yes"/>
      <point x="519" y="871"/>
      <point x="376" y="753"/>
      <point x="376" y="620" type="curve" smooth="yes"/>
      <point x="376" y="0" type="line"/>
    </contour>
  </outline>
</glyph>
<glyph name="l" format="1">
  <advance width="528"/>
  <unicode hex="006C"/>
  <outline>
    <contour>
      <point x="235" y="1026" type="move" name="caron.alt"/>
    </contour>
    <contour>
      <point x="276" y="1456" type="move" name="top"/>
    </contour>
    <contour>
      <point x="158" y="0" type="line"/>
      <point x="158" y="1469" type="line"/>
      <point x="381" y="1469" type="line"/>
      <point x="381" y="0" type="line"/>
    </contour>
  </outline>
</glyph>
<glyph name="p" format="1">
  <advance width="1267"/>
  <unicode hex="0070"/>
  <outline>
    <contour>
      <point x="680" y="1026" type="move" name="top"/>
    </contour>
    <contour>
      <point x="656" y="159" type="curve" smooth="yes"/>
      <point x="846" y="159"/>
      <point x="930" y="318"/>
      <point x="930" y="516" type="curve" smooth="yes"/>
      <point x="930" y="717"/>
      <point x="841" y="871"/>
      <point x="657" y="871" type="curve" smooth="yes"/>
      <point x="470" y="871"/>
      <point x="378" y="715"/>
      <point x="378" y="511" type="curve" smooth="yes"/>
      <point x="378" y="316"/>
      <point x="465" y="159"/>
    </contour>
    <contour>
      <point x="166" y="-405" type="line"/>
      <point x="166" y="703" type="line" smooth="yes"/>
      <point x="166" y="797"/>
      <point x="157" y="920"/>
      <point x="151" y="1026" type="curve"/>
      <point x="388" y="1026" type="line"/>
      <point x="388" y="867" type="line"/>
      <point x="411" y="948"/>
      <point x="538" y="1052"/>
      <point x="711" y="1052" type="curve" smooth="yes"/>
      <point x="992" y="1052"/>
      <point x="1164" y="816"/>
      <point x="1164" y="525" type="curve" smooth="yes"/>
      <point x="1164" y="232"/>
      <point x="992" y="-23"/>
      <point x="703" y="-23" type="curve" smooth="yes"/>
      <point x="530" y="-23"/>
      <point x="408" y="81"/>
      <point x="388" y="149" type="curve"/>
      <point x="388" y="-405" type="line"/>
    </contour>
  </outline>
</glyph>
<glyph name="r" format="1">
  <advance width="798"/>
  <unicode hex="0072"/>
  <outline>
    <contour>
      <point x="492" y="1026" type="move" name="top"/>
    </contour>
    <contour>
      <point x="168" y="0" type="line"/>
      <point x="168" y="770" type="line" smooth="yes"/>
      <point x="168" y="864"/>
      <point x="152" y="1026"/>
      <point x="152" y="1026" type="curve"/>
      <point x="390" y="1026" type="line"/>
      <point x="390" y="881" type="line"/>
      <point x="459" y="987"/>
      <point x="542" y="1052"/>
      <point x="652" y="1052" type="curve" smooth="yes"/>
      <point x="685" y="1052"/>
      <point x="720" y="1047"/>
      <point x="756" y="1037" type="curve"/>
      <point x="756" y="840" type="line"/>
      <point x="718" y="853"/>
      <point x="676" y="860"/>
      <point x="636" y="860" type="curve" smooth="yes"/>
      <point x="496" y="860"/>
      <point x="393" y="764"/>
      <point x="393" y="577" type="curve" smooth="yes"/>
      <point x="393" y="0" type="line"/>
    </contour>
  </outline>
</glyph>
<glyph name="s" format="1">
  <advance width="988"/>
  <unicode hex="0073"/>
  <outline>
    <contour>
      <point x="498" y="1026" type="move" name="top"/>
    </contour>
    <contour>
      <point x="530" y="-23" type="curve" smooth="yes"/>
      <point x="330" y="-23"/>
      <point x="183" y="53"/>
      <point x="118" y="104" type="curve"/>
      <point x="176" y="268" type="line"/>
      <point x="251" y="211"/>
      <point x="386" y="156"/>
      <point x="512" y="156" type="curve" smooth="yes"/>
      <point x="614" y="156"/>
      <point x="690" y="188"/>
      <point x="690" y="287" type="curve" smooth="yes"/>
      <point x="690" y="354"/>
      <point x="656" y="379"/>
      <point x="496" y="433" type="curve" smooth="yes"/>
      <point x="400" y="466" type="line" smooth="yes"/>
      <point x="242" y="520"/>
      <point x="125" y="578"/>
      <point x="125" y="759" type="curve" smooth="yes"/>
      <point x="125" y="969"/>
      <point x="309" y="1050"/>
      <point x="499" y="1050" type="curve" smooth="yes"/>
      <point x="643" y="1050"/>
      <point x="773" y="1010"/>
      <point x="857" y="955" type="curve"/>
      <point x="797" y="799" type="line"/>
      <point x="738" y="830"/>
      <point x="621" y="873"/>
      <point x="521" y="873" type="curve" smooth="yes"/>
      <point x="407" y="873"/>
      <point x="344" y="838"/>
      <point x="344" y="767" type="curve" smooth="yes"/>
      <point x="344" y="701"/>
      <point x="375" y="682"/>
      <point x="514" y="633" type="curve" smooth="yes"/>
      <point x="523" y="630"/>
      <point x="603" y="602"/>
      <point x="615" y="598" type="curve" smooth="yes"/>
      <point x="783" y="539"/>
      <point x="899" y="481"/>
      <point x="899" y="288" type="curve" smooth="yes"/>
      <point x="899" y="55"/>
      <point x="704" y="-23"/>
    </contour>
  </outline>
</glyph>
<glyph name="u" format="1">
  <advance width="1206"/>
  <unicode hex="0075"/>
  <outline>
    <contour>
      <point x="601" y="1026" type="move" name="top"/>
    </contour>
    <contour>
      <point x="538" y="-23" type="curve" smooth="yes"/>
      <point x="272" y="-23"/>
      <point x="142" y="146"/>
      <point x="142" y="382" type="curve" smooth="yes"/>
      <point x="142" y="1026" type="line"/>
      <point x="364" y="1026" type="line"/>
      <point x="364" y="384" type="line" smooth="yes"/>
      <point x="364" y="230"/>
      <point x="446" y="159"/>
      <point x="581" y="159" type="curve" smooth="yes"/>
      <point x="740" y="159"/>
      <point x="825" y="244"/>
      <point x="825" y="413" type="curve" smooth="yes"/>
      <point x="825" y="1026" type="line"/>
      <point x="1049" y="1026" type="line"/>
      <point x="1049" y="268" type="line" smooth="yes"/>
      <point x="1049" y="204"/>
      <point x="1058" y="14"/>
      <point x="1059" y="0" type="curve"/>
      <point x="829" y="0" type="line"/>
      <point x="825" y="156" type="line"/>
      <point x="797" y="91"/>
      <point x="712" y="-23"/>
    </contour>
  </outline>
</glyph>
<glyph name="x" format="1">
  <advance width="1048"/>
  <unicode hex="0078"/>
  <outline>
    <contour>
      <point x="29" y="0" type="line"/>
      <point x="401" y="504" type="line"/>
      <point x="48" y="1026" type="line"/>
      <point x="294" y="1026" type="line"/>
      <point x="527" y="675" type="line"/>
      <point x="783" y="1026" type="line"/>
      <point x="1015" y="1026" type="line"/>
      <point x="651" y="530" type="line"/>
      <point x="1019" y="0" type="line"/>
      <point x="774" y="0" type="line"/>
      <point x="526" y="359" type="line"/>
      <point x="264" y="0" type="line"/>
    </contour>
  </outline>
</glyph>
<glyph name="y" format="1">
  <advance width="1098"/>
  <unicode hex="0079"/>
  <outline>
    <contour>
      <point x="575" y="1026" type="move" name="top"/>
    </contour>
    <contour>
      <point x="236" y="-441" type="curve"/>
      <point x="142" y="-289" type="line"/>
      <point x="330" y="-219"/>
      <point x="416" y="-136"/>
      <point x="448" y="-31" type="curve"/>
      <point x="462" y="19" type="line"/>
      <point x="34" y="1026" type="line"/>
      <point x="266" y="1026" type="line"/>
      <point x="571" y="258" type="line"/>
      <point x="843" y="1026" type="line"/>
      <point x="1070" y="1026" type="line"/>
      <point x="654" y="-56" type="line" smooth="yes"/>
      <point x="573" y="-266"/>
      <point x="413" y="-389"/>
    </contour>
  </outline>
</glyph>
<glyph name="z" format="1">
  <advance width="987"/>
  <unicode hex="007A"/>
  <outline>
    <contour>
      <point x="534" y="1026" type="move" name="top"/>
    </contour>
    <contour>
      <point x="103" y="0" type="line"/>
      <point x="103" y="119" type="line"/>
      <point x="601" y="846" type="line"/>
      <point x="122" y="846" type="line"/>
      <point x="122" y="1026" type="line"/>
      <point x="891" y="1026" type="line"/>
      <point x="891" y="909" type="line"/>
      <point x="391" y="179" type="line"/>
      <point x="915" y="179" type="line"/>
      <point x="915" y="0" type="line"/>
    </contour>
  </outline>
</glyph>
<glyph name="bar" format="1">
  <advance width="607"/>
  <unicode hex="007C"/>
  <outline>
    <contour>
      <point x="197" y="-465" type="line"/>
      <point x="197" y="1518" type="line"/>
      <point x="410" y="1518" type="line"/>
      <point x="410" y="-465" type="line"/>
    </contour>
  </outline>
</glyph>
<glyph name="braceright" format="1">
  <advance width="862"/>
  <unicode hex="007D"/>
  <outline>
    <contour>
      <point x="108" y="-194" type="curve"/>
      <point x="108" y="-18" type="line"/>
      <point x="275" y="-17"/>
      <point x="322" y="16"/>
      <point x="322" y="175" type="curve" smooth="yes"/>
      <point x="322" y="416" type="line" smooth="yes"/>
      <point x="322" y="553"/>
      <point x="396" y="641"/>
      <point x="526" y="663" type="curve"/>
      <point x="393" y="688"/>
      <point x="322" y="783"/>
      <point x="322" y="921" type="curve" smooth="yes"/>
      <point x="322" y="1159" type="line" smooth="yes"/>
      <point x="322" y="1323"/>
      <point x="265" y="1339"/>
      <point x="109" y="1340" type="curve"/>
      <point x="109" y="1514" type="line"/>
      <point x="457" y="1513"/>
      <point x="551" y="1415"/>
      <point x="551" y="1167" type="curve" smooth="yes"/>
      <point x="551" y="933" type="line" smooth="yes"/>
      <point x="551" y="794"/>
      <point x="598" y="737"/>
      <point x="733" y="735" type="curve"/>
      <point x="733" y="586" type="line"/>
      <point x="603" y="584"/>
      <point x="551" y="529"/>
      <point x="551" y="396" type="curve" smooth="yes"/>
      <point x="551" y="163" type="line" smooth="yes"/>
      <point x="551" y="-83"/>
      <point x="465" y="-194"/>
    </contour>
  </outline>
</glyph>
<glyph name="cent" format="1">
  <advance width="1058"/>
  <unicode hex="00A2"/>
  <outline>
    <contour>
      <point x="706" y="-19" type="curve"/>
      <point x="706" y="-230" type="line"/>
      <point x="598" y="-230" type="line"/>
      <point x="598" y="-22" type="line"/>
      <point x="287" y="-5"/>
      <point x="104" y="228"/>
      <point x="104" y="510" type="curve" smooth="yes"/>
      <point x="104" y="811"/>
      <point x="294" y="1034"/>
      <point x="598" y="1051" type="curve"/>
      <point x="598" y="1250" type="line"/>
      <point x="706" y="1250" type="line"/>
      <point x="706" y="1048" type="line"/>
      <point x="824" y="1036"/>
      <point x="921" y="993"/>
      <point x="991" y="920" type="curve"/>
      <point x="912" y="774" type="line"/>
      <point x="862" y="819"/>
      <point x="792" y="856"/>
      <point x="706" y="867" type="curve"/>
      <point x="706" y="162" type="line"/>
      <point x="808" y="174"/>
      <point x="880" y="223"/>
      <point x="922" y="254" type="curve"/>
      <point x="991" y="90" type="line"/>
      <point x="904" y="28"/>
      <point x="814" y="-8"/>
    </contour>
    <contour>
      <point x="598" y="163" type="curve"/>
      <point x="598" y="866" type="line"/>
      <point x="437" y="842"/>
      <point x="337" y="716"/>
      <point x="337" y="511" type="curve" smooth="yes"/>
      <point x="337" y="321"/>
      <point x="434" y="188"/>
    </contour>
  </outline>
</glyph>
<glyph name="brokenbar" format="1">
  <advance width="500"/>
  <unicode hex="00A6"/>
  <outline>
    <contour>
      <point x="150" y="597" type="line"/>
      <point x="150" y="1518" type="line"/>
      <point x="357" y="1518" type="line"/>
      <point x="357" y="597" type="line"/>
    </contour>
    <contour>
      <point x="152" y="-465" type="line"/>
      <point x="152" y="409" type="line"/>
      <point x="359" y="409" type="line"/>
      <point x="359" y="-465" type="line"/>
    </contour>
  </outline>
</glyph>
<glyph name="section" format="1">
  <advance width="1090"/>
  <unicode hex="00A7"/>
  <outline>
    <contour>
      <point x="631" y="564" type="curve"/>
      <point x="661" y="592"/>
      <point x="694" y="636"/>
      <point x="694" y="691" type="curve" smooth="yes"/>
      <point x="694" y="782"/>
      <point x="608" y="808"/>
      <point x="496" y="861" type="curve"/>
      <point x="466" y="843"/>
      <point x="401" y="792"/>
      <point x="401" y="731" type="curve" smooth="yes"/>
      <point x="401" y="654"/>
      <point x="487" y="627"/>
    </contour>
    <contour>
      <point x="514" y="-67" type="curve" smooth="yes"/>
      <point x="410" y="-67"/>
      <point x="298" y="-47"/>
      <point x="195" y="-8" type="curve"/>
      <point x="195" y="179" type="line"/>
      <point x="295" y="137"/>
      <point x="410" y="112"/>
      <point x="502" y="112" type="curve" smooth="yes"/>
      <point x="613" y="112"/>
      <point x="691" y="157"/>
      <point x="691" y="244" type="curve" smooth="yes"/>
      <point x="691" y="305"/>
      <point x="614" y="338"/>
      <point x="393" y="442" type="curve" smooth="yes"/>
      <point x="261" y="503"/>
      <point x="179" y="593"/>
      <point x="179" y="712" type="curve" smooth="yes"/>
      <point x="179" y="810"/>
      <point x="248" y="899"/>
      <point x="337" y="951" type="curve"/>
      <point x="256" y="1010"/>
      <point x="202" y="1079"/>
      <point x="202" y="1187" type="curve" smooth="yes"/>
      <point x="202" y="1388"/>
      <point x="379" y="1481"/>
      <point x="589" y="1481" type="curve" smooth="yes"/>
      <point x="682" y="1481"/>
      <point x="776" y="1468"/>
      <point x="868" y="1437" type="curve"/>
      <point x="868" y="1265" type="line"/>
      <point x="803" y="1284"/>
      <point x="708" y="1314"/>
      <point x="622" y="1314" type="curve" smooth="yes"/>
      <point x="523" y="1314"/>
      <point x="437" y="1279"/>
      <point x="437" y="1199" type="curve" smooth="yes"/>
      <point x="437" y="1133"/>
      <point x="515" y="1077"/>
      <point x="663" y="1010" type="curve"/>
      <point x="808" y="939"/>
      <point x="933" y="866"/>
      <point x="933" y="722" type="curve" smooth="yes"/>
      <point x="933" y="624"/>
      <point x="869" y="542"/>
      <point x="784" y="479" type="curve"/>
      <point x="867" y="432"/>
      <point x="926" y="358"/>
      <point x="926" y="250" type="curve" smooth="yes"/>
      <point x="926" y="36"/>
      <point x="738" y="-67"/>
    </contour>
  </outline>
</glyph>
<glyph name="copyright" format="1">
  <advance width="1719"/>
  <unicode hex="00A9"/>
  <outline>
    <contour>
      <point x="859" y="-22" type="curve" smooth="yes"/>
      <point x="445" y="-22"/>
      <point x="106" y="316"/>
      <point x="106" y="730" type="curve" smooth="yes"/>
      <point x="106" y="1145"/>
      <point x="445" y="1483"/>
      <point x="859" y="1483" type="curve" smooth="yes"/>
      <point x="1274" y="1483"/>
      <point x="1613" y="1145"/>
      <point x="1613" y="730" type="curve" smooth="yes"/>
      <point x="1613" y="316"/>
      <point x="1274" y="-22"/>
    </contour>
    <contour>
      <point x="859" y="87" type="curve" smooth="yes"/>
      <point x="1207" y="87"/>
      <point x="1485" y="379"/>
      <point x="1485" y="727" type="curve" smooth="yes"/>
      <point x="1485" y="1076"/>
      <point x="1207" y="1371"/>
      <point x="859" y="1371" type="curve" smooth="yes"/>
      <point x="510" y="1371"/>
      <point x="233" y="1076"/>
      <point x="233" y="727" type="curve" smooth="yes"/>
      <point x="233" y="379"/>
      <point x="510" y="87"/>
    </contour>
    <contour>
      <point x="880" y="287" type="curve" smooth="yes"/>
      <point x="615" y="287"/>
      <point x="443" y="482"/>
      <point x="443" y="723" type="curve" smooth="yes"/>
      <point x="443" y="981"/>
      <point x="612" y="1169"/>
      <point x="880" y="1169" type="curve" smooth="yes"/>
      <point x="1004" y="1169"/>
      <point x="1105" y="1132"/>
      <point x="1174" y="1061" type="curve"/>
      <point x="1108" y="940" type="line"/>
      <point x="1059" y="984"/>
      <point x="987" y="1020"/>
      <point x="896" y="1020" type="curve" smooth="yes"/>
      <point x="738" y="1020"/>
      <point x="634" y="911"/>
      <point x="634" y="723" type="curve" smooth="yes"/>
      <point x="634" y="545"/>
      <point x="740" y="436"/>
      <point x="899" y="436" type="curve" smooth="yes"/>
      <point x="1000" y="436"/>
      <point x="1073" y="482"/>
      <point x="1117" y="516" type="curve"/>
      <point x="1175" y="383" type="line"/>
      <point x="1085" y="318"/>
      <point x="992" y="287"/>
    </contour>
  </outline>
</glyph>
<glyph name="logicalnot" format="1">
  <advance width="1459"/>
  <unicode hex="00AC"/>
  <outline>
    <contour>
      <point x="1027" y="226" type="line"/>
      <point x="1027" y="623" type="line"/>
      <point x="175" y="623" type="line"/>
      <point x="175" y="810" type="line"/>
      <point x="1236" y="810" type="line"/>
      <point x="1236" y="226" type="line"/>
    </contour>
  </outline>
</glyph>
<glyph name="acute" format="1">
  <advance width="607"/>
  <unicode hex="00B4"/>
  <outline>
    <contour>
      <point x="147" y="1026" type="move" name="_top"/>
    </contour>
    <contour>
      <point x="51" y="1170" type="line"/>
      <point x="305" y="1510" type="line"/>
      <point x="593" y="1510" type="line"/>
      <point x="251" y="1170" type="line"/>
    </contour>
  </outline>
</glyph>
<glyph name="mu" format="1">
  <advance width="1203"/>
  <unicode hex="00B5"/>
  <outline>
    <contour>
      <point x="365" y="-241" type="line"/>
      <point x="139" y="-241" type="line"/>
      <point x="139" y="1026" type="line"/>
      <point x="360" y="1026" type="line"/>
      <point x="362" y="422" type="line" smooth="yes"/>
      <point x="362" y="249"/>
      <point x="428" y="158"/>
      <point x="573" y="158" type="curve" smooth="yes"/>
      <point x="731" y="158"/>
      <point x="821" y="233"/>
      <point x="821" y="419" type="curve" smooth="yes"/>
      <point x="821" y="1026" type="line"/>
      <point x="1046" y="1026" type="line"/>
      <point x="1046" y="262" type="line" smooth="yes"/>
      <point x="1046" y="176"/>
      <point x="1051" y="70"/>
      <point x="1059" y="0" type="curve"/>
      <point x="827" y="0" type="line"/>
      <point x="823" y="155" type="line"/>
      <point x="778" y="49"/>
      <point x="669" y="-23"/>
      <point x="538" y="-23" type="curve" smooth="yes"/>
      <point x="471" y="-23"/>
      <point x="407" y="-7"/>
      <point x="365" y="21" type="curve"/>
    </contour>
  </outline>
</glyph>
<glyph name="paragraph" format="1">
  <advance width="1220"/>
  <unicode hex="00B6"/>
  <outline>
    <contour>
      <point x="446" y="-178" type="line"/>
      <point x="446" y="799" type="line"/>
      <point x="240" y="812"/>
      <point x="109" y="929"/>
      <point x="109" y="1131" type="curve" smooth="yes"/>
      <point x="109" y="1389"/>
      <point x="306" y="1455"/>
      <point x="584" y="1455" type="curve" smooth="yes"/>
      <point x="1062" y="1455" type="line"/>
      <point x="1062" y="1283" type="line"/>
      <point x="969" y="1283" type="line"/>
      <point x="969" y="-178" type="line"/>
      <point x="795" y="-178" type="line"/>
      <point x="795" y="1283" type="line"/>
      <point x="621" y="1283" type="line"/>
      <point x="621" y="-178" type="line"/>
    </contour>
  </outline>
</glyph>
<glyph name="onehalf" format="1">
  <advance width="2390"/>
  <unicode hex="00BD"/>
  <outline>
    <contour>
      <point x="216" y="623" type="line"/>
      <point x="216" y="766" type="line"/>
      <point x="403" y="766" type="line"/>
      <point x="403" y="1283" type="line"/>
      <point x="199" y="1226" type="line"/>
      <point x="199" y="1375" type="line"/>
      <point x="211" y="1378"/>
      <point x="429" y="1451"/>
      <point x="437" y="1456" type="curve"/>
      <point x="579" y="1456" type="line"/>
      <point x="579" y="764" type="line"/>
      <point x="745" y="764" type="line"/>
      <point x="745" y="623" type="line"/>
    </contour>
    <contour>
      <point x="564" y="0" type="line"/>
      <point x="1455" y="1456" type="line"/>
      <point x="1650" y="1456" type="line"/>
      <point x="760" y="0" type="line"/>
    </contour>
    <contour>
      <point x="1773" y="847" type="curve" smooth="yes"/>
      <point x="1933" y="847"/>
      <point x="2061" y="763"/>
      <point x="2061" y="584" type="curve" smooth="yes"/>
      <point x="2061" y="450"/>
      <point x="1969" y="364"/>
      <point x="1846" y="263" type="curve" smooth="yes"/>
      <point x="1723" y="161" type="line"/>
      <point x="2051" y="161" type="line"/>
      <point x="2051" y="0" type="line"/>
      <point x="1473" y="0" type="line"/>
      <point x="1473" y="153" type="line"/>
      <point x="1743" y="383" type="line" smooth="yes"/>
      <point x="1847" y="471"/>
      <point x="1878" y="515"/>
      <point x="1878" y="575" type="curve" smooth="yes"/>
      <point x="1878" y="653"/>
      <point x="1837" y="691"/>
      <point x="1762" y="691" type="curve" smooth="yes"/>
      <point x="1690" y="691"/>
      <point x="1602" y="654"/>
      <point x="1533" y="602" type="curve"/>
      <point x="1465" y="738" type="line"/>
      <point x="1552" y="808"/>
      <point x="1666" y="847"/>
    </contour>
  </outline>
</glyph>
<glyph name="AE" format="1">
  <advance width="2157"/>
  <unicode hex="00C6"/>
  <outline>
    <contour>
      <point x="1344" y="1456" type="move" name="top"/>
    </contour>
    <contour>
      <point x="602" y="554" type="line"/>
      <point x="1089" y="554" type="line"/>
      <point x="1038" y="1254" type="line"/>
      <point x="1000" y="1254" type="line"/>
    </contour>
    <contour>
      <point x="21" y="0" type="line"/>
      <point x="876" y="1456" type="line"/>
      <point x="1938" y="1456" type="line"/>
      <point x="1938" y="1254" type="line"/>
      <point x="1269" y="1254" type="line"/>
      <point x="1305" y="844" type="line"/>
      <point x="1924" y="844" type="line"/>
      <point x="1924" y="648" type="line"/>
      <point x="1329" y="648" type="line"/>
      <point x="1370" y="202" type="line"/>
      <point x="1964" y="202" type="line"/>
      <point x="1964" y="0" type="line"/>
      <point x="1136" y="0" type="line"/>
      <point x="1105" y="373" type="line"/>
      <point x="511" y="373" type="line"/>
      <point x="299" y="0" type="line"/>
    </contour>
  </outline>
</glyph>
<glyph name="Oslash" format="1">
  <advance width="1653"/>
  <unicode hex="00D8"/>
  <outline>
    <contour>
      <point x="830" y="-23" type="curve" smooth="yes"/>
      <point x="1282" y="-23"/>
      <point x="1547" y="275"/>
      <point x="1547" y="733" type="curve" smooth="yes"/>
      <point x="1547" y="1016"/>
      <point x="1436" y="1243"/>
      <point x="1242" y="1370" type="curve"/>
      <point x="1320" y="1517" type="line"/>
      <point x="1214" y="1569" type="line"/>
      <point x="1137" y="1425" type="line"/>
      <point x="1048" y="1462"/>
      <point x="946" y="1483"/>
      <point x="833" y="1483" type="curve" smooth="yes"/>
      <point x="376" y="1483"/>
      <point x="106" y="1177"/>
      <point x="106" y="733" type="curve" smooth="yes"/>
      <point x="106" y="436"/>
      <point x="219" y="208"/>
      <point x="421" y="83" type="curve"/>
      <point x="337" y="-75" type="line"/>
      <point x="444" y="-126" type="line"/>
      <point x="527" y="30" type="line"/>
      <point x="616" y="-5"/>
      <point x="717" y="-23"/>
    </contour>
    <contour>
      <point x="1139" y="1178" type="line"/>
      <point x="1245" y="1082"/>
      <point x="1297" y="926"/>
      <point x="1297" y="733" type="curve" smooth="yes"/>
      <point x="1297" y="388"/>
      <point x="1143" y="174"/>
      <point x="826" y="174" type="curve" smooth="yes"/>
      <point x="749" y="174"/>
      <point x="682" y="187"/>
      <point x="624" y="211" type="curve"/>
    </contour>
    <contour>
      <point x="1041" y="1244" type="curve"/>
      <point x="522" y="272" type="line"/>
      <point x="410" y="367"/>
      <point x="354" y="526"/>
      <point x="354" y="733" type="curve" smooth="yes"/>
      <point x="354" y="1064"/>
      <point x="517" y="1286"/>
      <point x="830" y="1286" type="curve" smooth="yes"/>
      <point x="911" y="1286"/>
      <point x="981" y="1271"/>
    </contour>
  </outline>
</glyph>
<glyph name="Thorn" format="1">
  <advance width="1292"/>
  <unicode hex="00DE"/>
  <outline>
    <contour>
      <point x="422" y="531" type="line"/>
      <point x="657" y="531" type="line" smooth="yes"/>
      <point x="846" y="531"/>
      <point x="968" y="604"/>
      <point x="968" y="774" type="curve" smooth="yes"/>
      <point x="968" y="977"/>
      <point x="836" y="1023"/>
      <point x="616" y="1023" type="curve" smooth="yes"/>
      <point x="422" y="1023" type="line"/>
    </contour>
    <contour>
      <point x="194" y="0" type="line"/>
      <point x="194" y="1456" type="line"/>
      <point x="423" y="1456" type="line"/>
      <point x="423" y="1217" type="line"/>
      <point x="604" y="1217" type="line" smooth="yes"/>
      <point x="946" y="1217"/>
      <point x="1215" y="1144"/>
      <point x="1215" y="775" type="curve" smooth="yes"/>
      <point x="1215" y="464"/>
      <point x="950" y="336"/>
      <point x="632" y="336" type="curve" smooth="yes"/>
      <point x="422" y="336" type="line"/>
      <point x="422" y="0" type="line"/>
    </contour>
  </outline>
</glyph>
<glyph name="ae" format="1">
  <advance width="1782"/>
  <unicode hex="00E6"/>
  <outline>
    <contour>
      <point x="895" y="1026" type="move" name="top"/>
    </contour>
    <contour>
      <point x="1477" y="626" type="line"/>
      <point x="1467" y="789"/>
      <point x="1369" y="882"/>
      <point x="1241" y="882" type="curve" smooth="yes"/>
      <point x="1091" y="882"/>
      <point x="1008" y="765"/>
      <point x="981" y="626" type="curve"/>
    </contour>
    <contour>
      <point x="483" y="157" type="curve" smooth="yes"/>
      <point x="685" y="157"/>
      <point x="756" y="322"/>
      <point x="759" y="475" type="curve"/>
      <point x="639" y="475" type="line" smooth="yes"/>
      <point x="465" y="475"/>
      <point x="297" y="435"/>
      <point x="297" y="300" type="curve" smooth="yes"/>
      <point x="297" y="196"/>
      <point x="384" y="157"/>
    </contour>
    <contour>
      <point x="1264" y="-23" type="curve" smooth="yes"/>
      <point x="1083" y="-23"/>
      <point x="941" y="48"/>
      <point x="867" y="196" type="curve"/>
      <point x="794" y="51"/>
      <point x="636" y="-24"/>
      <point x="470" y="-24" type="curve" smooth="yes"/>
      <point x="237" y="-24"/>
      <point x="78" y="89"/>
      <point x="78" y="290" type="curve" smooth="yes"/>
      <point x="78" y="572"/>
      <point x="313" y="630"/>
      <point x="721" y="630" type="curve" smooth="yes"/>
      <point x="758" y="630" type="line"/>
      <point x="758" y="773"/>
      <point x="676" y="875"/>
      <point x="521" y="875" type="curve" smooth="yes"/>
      <point x="430" y="875"/>
      <point x="319" y="841"/>
      <point x="219" y="794" type="curve"/>
      <point x="155" y="946" type="line"/>
      <point x="189" y="967"/>
      <point x="336" y="1052"/>
      <point x="564" y="1052" type="curve" smooth="yes"/>
      <point x="677" y="1052"/>
      <point x="829" y="990"/>
      <point x="889" y="860" type="curve"/>
      <point x="962" y="983"/>
      <point x="1100" y="1052"/>
      <point x="1238" y="1052" type="curve" smooth="yes"/>
      <point x="1538" y="1052"/>
      <point x="1674" y="820"/>
      <point x="1674" y="521" type="curve" smooth="yes"/>
      <point x="1674" y="502"/>
      <point x="1669" y="475"/>
      <point x="1669" y="475" type="curve"/>
      <point x="978" y="475" type="line"/>
      <point x="978" y="452" type="line"/>
      <point x="991" y="256"/>
      <point x="1090" y="159"/>
      <point x="1274" y="159" type="curve" smooth="yes"/>
      <point x="1450" y="159"/>
      <point x="1589" y="269"/>
      <point x="1589" y="269" type="curve"/>
      <point x="1652" y="106" type="line"/>
      <point x="1652" y="106"/>
      <point x="1499" y="-23"/>
    </contour>
  </outline>
</glyph>
<glyph name="divide" format="1">
  <advance width="1417"/>
  <unicode hex="00F7"/>
  <outline>
    <contour>
      <point x="573" y="850" type="line"/>
      <point x="573" y="1103" type="line"/>
      <point x="806" y="1103" type="line"/>
      <point x="806" y="850" type="line"/>
    </contour>
    <contour>
      <point x="165" y="459" type="line"/>
      <point x="165" y="646" type="line"/>
      <point x="1205" y="646" type="line"/>
      <point x="1205" y="459" type="line"/>
    </contour>
    <contour>
      <point x="576" y="-7" type="line"/>
      <point x="576" y="247" type="line"/>
      <point x="809" y="247" type="line"/>
      <point x="809" y="-7" type="line"/>
    </contour>
  </outline>
</glyph>
<glyph name="oslash" format="1">
  <advance width="1265"/>
  <unicode hex="00F8"/>
  <outline>
    <contour>
      <point x="743" y="855" type="curve"/>
      <point x="450" y="221" type="line"/>
      <point x="373" y="285"/>
      <point x="338" y="392"/>
      <point x="338" y="514" type="curve" smooth="yes"/>
      <point x="338" y="716"/>
      <point x="435" y="871"/>
      <point x="638" y="871" type="curve" smooth="yes"/>
      <point x="677" y="871"/>
      <point x="712" y="866"/>
    </contour>
    <contour>
      <point x="836" y="799" type="line"/>
      <point x="904" y="735"/>
      <point x="936" y="632"/>
      <point x="936" y="514" type="curve" smooth="yes"/>
      <point x="936" y="317"/>
      <point x="846" y="159"/>
      <point x="639" y="159" type="curve" smooth="yes"/>
      <point x="605" y="159"/>
      <point x="574" y="163"/>
      <point x="546" y="171" type="curve"/>
    </contour>
    <contour>
      <point x="640" y="-23" type="curve" smooth="yes"/>
      <point x="989" y="-23"/>
      <point x="1170" y="218"/>
      <point x="1170" y="511" type="curve" smooth="yes"/>
      <point x="1170" y="721"/>
      <point x="1088" y="897"/>
      <point x="923" y="987" type="curve"/>
      <point x="1006" y="1167" type="line"/>
      <point x="907" y="1211" type="line"/>
      <point x="823" y="1028" type="line"/>
      <point x="769" y="1044"/>
      <point x="708" y="1052"/>
      <point x="641" y="1052" type="curve" smooth="yes"/>
      <point x="291" y="1052"/>
      <point x="104" y="817"/>
      <point x="104" y="513" type="curve" smooth="yes"/>
      <point x="104" y="306"/>
      <point x="192" y="127"/>
      <point x="366" y="38" type="curve"/>
      <point x="272" y="-166" type="line"/>
      <point x="371" y="-209" type="line"/>
      <point x="467" y="-1" type="line"/>
      <point x="519" y="-15"/>
      <point x="577" y="-23"/>
    </contour>
  </outline>
</glyph>
<glyph name="dotlessi" format="1">
  <advance width="521"/>
  <unicode hex="0131"/>
  <outline>
    <contour>
      <point x="257" y="1026" type="move" name="top"/>
    </contour>
    <contour>
      <point x="143" y="0" type="line"/>
      <point x="143" y="1026" type="line"/>
      <point x="368" y="1026" type="line"/>
      <point x="368" y="0" type="line"/>
    </contour>
  </outline>
</glyph>
<glyph name="kgreenlandic" format="1">
  <advance width="1082"/>
  <unicode hex="0138"/>
  <outline>
    <contour>
      <point x="155" y="0" type="line"/>
      <point x="155" y="1026" type="line"/>
      <point x="378" y="1026" type="line"/>
      <point x="378" y="604" type="line"/>
      <point x="765" y="1026" type="line"/>
      <point x="1065" y="1026" type="line"/>
      <point x="553" y="513" type="line"/>
      <point x="747" y="334"/>
      <point x="889" y="193"/>
      <point x="1101" y="0" type="curve"/>
      <point x="808" y="0" type="line"/>
      <point x="378" y="415" type="line"/>
      <point x="378" y="0" type="line"/>
    </contour>
  </outline>
</glyph>
<glyph name="lslash" format="1">
  <advance width="503"/>
  <unicode hex="0142"/>
  <outline>
    <contour>
      <point x="132" y="0" type="line"/>
      <point x="132" y="715" type="line"/>
      <point x="5" y="615" type="line"/>
      <point x="5" y="811" type="line"/>
      <point x="132" y="911" type="line"/>
      <point x="132" y="1468" type="line"/>
      <point x="356" y="1468" type="line"/>
      <point x="356" y="1070" type="line"/>
      <point x="478" y="1168" type="line"/>
      <point x="478" y="971" type="line"/>
      <point x="357" y="870" type="line"/>
      <point x="357" y="0" type="line"/>
    </contour>
  </outline>
</glyph>
<glyph name="Eng" format="1">
  <advance width="1602"/>
  <unicode hex="014A"/>
  <outline>
    <contour>
      <point x="1410" y="1456" type="line"/>
      <point x="1410" y="41" type="line" smooth="yes"/>
      <point x="1410" y="-301"/>
      <point x="1226" y="-454"/>
      <point x="900" y="-454" type="curve"/>
      <point x="900" y="-277" type="line"/>
      <point x="1068" y="-277"/>
      <point x="1190" y="-226"/>
      <point x="1190" y="-25" type="curve" smooth="yes"/>
      <point x="1190" y="82" type="line"/>
      <point x="520" y="989" type="line"/>
      <point x="407" y="1158" type="line"/>
      <point x="407" y="0" type="line"/>
      <point x="191" y="0" type="line"/>
      <point x="191" y="1456" type="line"/>
      <point x="438" y="1456" type="line"/>
      <point x="1077" y="573" type="line"/>
      <point x="1190" y="406" type="line"/>
      <point x="1190" y="1456" type="line"/>
    </contour>
  </outline>
</glyph>
<glyph name="eng" format="1">
  <advance width="1207"/>
  <unicode hex="014B"/>
  <outline>
    <contour>
      <point x="554" y="-406" type="curve"/>
      <point x="554" y="-233" type="line"/>
      <point x="738" y="-233"/>
      <point x="846" y="-150"/>
      <point x="846" y="70" type="curve" smooth="yes"/>
      <point x="846" y="582" type="line" smooth="yes"/>
      <point x="846" y="778"/>
      <point x="809" y="870"/>
      <point x="654" y="870" type="curve" smooth="yes"/>
      <point x="531" y="870"/>
      <point x="388" y="760"/>
      <point x="388" y="626" type="curve" smooth="yes"/>
      <point x="388" y="0" type="line"/>
      <point x="164" y="0" type="line"/>
      <point x="164" y="677" type="line" smooth="yes"/>
      <point x="164" y="886"/>
      <point x="148" y="1026"/>
      <point x="148" y="1026" type="curve"/>
      <point x="383" y="1026" type="line"/>
      <point x="383" y="880" type="line"/>
      <point x="448" y="995"/>
      <point x="585" y="1052"/>
      <point x="699" y="1052" type="curve" smooth="yes"/>
      <point x="947" y="1052"/>
      <point x="1070" y="914"/>
      <point x="1070" y="575" type="curve" smooth="yes"/>
      <point x="1070" y="118" type="line" smooth="yes"/>
      <point x="1070" y="-227"/>
      <point x="885" y="-406"/>
    </contour>
  </outline>
</glyph>
<glyph name="oe" format="1">
  <advance width="1993"/>
  <unicode hex="0153"/>
  <outline>
    <contour>
      <point x="1136" y="631" type="curve"/>
      <point x="1646" y="631" type="line"/>
      <point x="1646" y="644" type="line"/>
      <point x="1640" y="783"/>
      <point x="1533" y="873"/>
      <point x="1399" y="873" type="curve" smooth="yes"/>
      <point x="1257" y="873"/>
      <point x="1153" y="773"/>
    </contour>
    <contour>
      <point x="636" y="159" type="curve" smooth="yes"/>
      <point x="824" y="159"/>
      <point x="908" y="323"/>
      <point x="908" y="511" type="curve" smooth="yes"/>
      <point x="908" y="715"/>
      <point x="827" y="871"/>
      <point x="629" y="871" type="curve" smooth="yes"/>
      <point x="436" y="871"/>
      <point x="333" y="711"/>
      <point x="332" y="508" type="curve" smooth="yes"/>
      <point x="332" y="317"/>
      <point x="426" y="159"/>
    </contour>
    <contour>
      <point x="1134" y="449" type="line"/>
      <point x="1134" y="263"/>
      <point x="1260" y="159"/>
      <point x="1456" y="159" type="curve" smooth="yes"/>
      <point x="1644" y="159"/>
      <point x="1775" y="266"/>
      <point x="1775" y="266" type="curve"/>
      <point x="1839" y="103" type="line"/>
      <point x="1839" y="103"/>
      <point x="1695" y="-22"/>
      <point x="1431" y="-22" type="curve" smooth="yes"/>
      <point x="1266" y="-22"/>
      <point x="1094" y="57"/>
      <point x="1022" y="181" type="curve"/>
      <point x="956" y="58"/>
      <point x="796" y="-22"/>
      <point x="632" y="-22" type="curve" smooth="yes"/>
      <point x="295" y="-22"/>
      <point x="99" y="205"/>
      <point x="99" y="511" type="curve" smooth="yes"/>
      <point x="99" y="813"/>
      <point x="286" y="1052"/>
      <point x="628" y="1052" type="curve" smooth="yes"/>
      <point x="820" y="1052"/>
      <point x="948" y="969"/>
      <point x="1022" y="853" type="curve"/>
      <point x="1100" y="980"/>
      <point x="1212" y="1055"/>
      <point x="1400" y="1055" type="curve" smooth="yes"/>
      <point x="1694" y="1055"/>
      <point x="1860" y="834"/>
      <point x="1860" y="509" type="curve" smooth="yes"/>
      <point x="1860" y="449" type="line"/>
    </contour>
  </outline>
</glyph>
<glyph name="florin" format="1">
  <advance width="1095"/>
  <unicode hex="0192"/>
  <outline>
    <contour>
      <point x="203" y="-309" type="curve" smooth="yes"/>
      <point x="193" y="-309"/>
      <point x="143" y="-305"/>
      <point x="95" y="-291" type="curve"/>
      <point x="112" y="-126" type="line"/>
      <point x="121" y="-128"/>
      <point x="159" y="-136"/>
      <point x="195" y="-136" type="curve" smooth="yes"/>
      <point x="259" y="-136"/>
      <point x="326" y="-106"/>
      <point x="357" y="67" type="curve" smooth="yes"/>
      <point x="473" y="705" type="line"/>
      <point x="328" y="705" type="line"/>
      <point x="361" y="850" type="line"/>
      <point x="499" y="850" type="line"/>
      <point x="548" y="1115" type="line" smooth="yes"/>
      <point x="576" y="1264"/>
      <point x="637" y="1458"/>
      <point x="897" y="1458" type="curve" smooth="yes"/>
      <point x="1012" y="1458"/>
      <point x="1075" y="1417"/>
      <point x="1075" y="1417" type="curve"/>
      <point x="1058" y="1257" type="line"/>
      <point x="1040" y="1262"/>
      <point x="985" y="1277"/>
      <point x="941" y="1277" type="curve" smooth="yes"/>
      <point x="869" y="1277"/>
      <point x="806" y="1245"/>
      <point x="781" y="1119" type="curve" smooth="yes"/>
      <point x="729" y="850" type="line"/>
      <point x="911" y="850" type="line"/>
      <point x="882" y="705" type="line"/>
      <point x="698" y="705" type="line"/>
      <point x="582" y="61" type="line" smooth="yes"/>
      <point x="534" y="-205"/>
      <point x="424" y="-309"/>
    </contour>
  </outline>
</glyph>
<glyph name="caron" format="1">
  <advance width="699"/>
  <unicode hex="02C7"/>
  <outline>
    <contour>
      <point x="360" y="1026" type="move" name="_top"/>
    </contour>
    <contour>
      <point x="258" y="1159" type="line"/>
      <point x="-9" y="1528" type="line"/>
      <point x="205" y="1528" type="line"/>
      <point x="346" y="1333" type="line"/>
      <point x="487" y="1528" type="line"/>
      <point x="709" y="1528" type="line"/>
      <point x="444" y="1159" type="line"/>
    </contour>
  </outline>
</glyph>
<glyph name="uni02C9" format="1">
  <advance width="600"/>
  <unicode hex="02C9"/>
  <outline>
    <contour>
      <point x="299" y="1073" type="move" name="_top"/>
    </contour>
    <contour>
      <point x="-38" y="1333" type="line"/>
      <point x="626" y="1333" type="line"/>
      <point x="626" y="1489" type="line"/>
      <point x="-38" y="1489" type="line"/>
    </contour>
  </outline>
</glyph>
<glyph name="breve" format="1">
  <advance width="668"/>
  <unicode hex="02D8"/>
  <outline>
    <contour>
      <point x="340" y="1026" type="move" name="_top"/>
    </contour>
    <contour>
      <point x="336" y="1174" type="curve" smooth="yes"/>
      <point x="154" y="1174"/>
      <point x="44" y="1257"/>
      <point x="30" y="1456" type="curve"/>
      <point x="188" y="1456" type="line"/>
      <point x="196" y="1353"/>
      <point x="261" y="1332"/>
      <point x="336" y="1332" type="curve" smooth="yes"/>
      <point x="410" y="1332"/>
      <point x="472" y="1353"/>
      <point x="482" y="1456" type="curve"/>
      <point x="637" y="1456" type="line"/>
      <point x="624" y="1257"/>
      <point x="517" y="1174"/>
    </contour>
  </outline>
</glyph>
<glyph name="ring" format="1">
  <advance width="672"/>
  <unicode hex="02DA"/>
  <outline>
    <contour>
      <point x="331" y="1500" type="move" name="top"/>
    </contour>
    <contour>
      <point x="337" y="1026" type="move" name="_top"/>
    </contour>
    <contour>
      <point x="332" y="1135" type="curve" smooth="yes"/>
      <point x="214" y="1135"/>
      <point x="118" y="1223"/>
      <point x="118" y="1342" type="curve" smooth="yes"/>
      <point x="118" y="1462"/>
      <point x="214" y="1549"/>
      <point x="332" y="1549" type="curve" smooth="yes"/>
      <point x="449" y="1549"/>
      <point x="545" y="1462"/>
      <point x="545" y="1342" type="curve" smooth="yes"/>
      <point x="545" y="1223"/>
      <point x="449" y="1135"/>
    </contour>
    <contour>
      <point x="331" y="1233" type="curve" smooth="yes"/>
      <point x="390" y="1233"/>
      <point x="438" y="1282"/>
      <point x="438" y="1342" type="curve" smooth="yes"/>
      <point x="438" y="1402"/>
      <point x="390" y="1450"/>
      <point x="331" y="1450" type="curve" smooth="yes"/>
      <point x="273" y="1450"/>
      <point x="225" y="1402"/>
      <point x="225" y="1342" type="curve" smooth="yes"/>
      <point x="225" y="1282"/>
      <point x="273" y="1233"/>
    </contour>
  </outline>
</glyph>
<glyph name="ogonek" format="1">
  <advance width="508"/>
  <unicode hex="02DB"/>
  <outline>
    <contour>
      <point x="254" y="-392" type="curve" smooth="yes"/>
      <point x="128" y="-392"/>
      <point x="30" y="-347"/>
      <point x="30" y="-243" type="curve" smooth="yes"/>
      <point x="30" y="-108"/>
      <point x="180" y="-24"/>
      <point x="266" y="19" type="curve"/>
      <point x="387" y="17" type="line"/>
      <point x="295" y="-39"/>
      <point x="228" y="-132"/>
      <point x="228" y="-193" type="curve" smooth="yes"/>
      <point x="228" y="-237"/>
      <point x="262" y="-256"/>
      <point x="317" y="-256" type="curve" smooth="yes"/>
      <point x="372" y="-256"/>
      <point x="443" y="-234"/>
      <point x="476" y="-225" type="curve"/>
      <point x="476" y="-355" type="line"/>
      <point x="401" y="-378"/>
      <point x="322" y="-392"/>
    </contour>
  </outline>
</glyph>
<glyph name="uni0307" format="1">
  <advance width="524"/>
  <unicode hex="0307"/>
  <outline>
    <contour>
      <point x="264" y="1026" type="move" name="_top"/>
    </contour>
    <contour>
      <point x="154" y="1221" type="line"/>
      <point x="154" y="1426" type="line"/>
      <point x="370" y="1426" type="line"/>
      <point x="370" y="1221" type="line"/>
    </contour>
  </outline>
</glyph>
<glyph name="uni0326" format="1">
  <advance width="540"/>
  <unicode hex="0326"/>
  <outline>
    <contour>
      <point x="88" y="-631" type="line"/>
      <point x="199" y="-138" type="line"/>
      <point x="452" y="-138" type="line"/>
      <point x="276" y="-631" type="line"/>
    </contour>
  </outline>
</glyph>
<glyph name="pi" format="1">
  <advance width="1468"/>
  <unicode hex="03C0"/>
  <outline>
    <contour>
      <point x="1146" y="-13" type="curve" smooth="yes"/>
      <point x="1224" y="-13"/>
      <point x="1290" y="11"/>
      <point x="1324" y="44" type="curve"/>
      <point x="1324" y="173" type="line"/>
      <point x="1296" y="163"/>
      <point x="1258" y="153"/>
      <point x="1217" y="153" type="curve" smooth="yes"/>
      <point x="1154" y="153"/>
      <point x="1105" y="188"/>
      <point x="1105" y="294" type="curve" smooth="yes"/>
      <point x="1105" y="403"/>
      <point x="1112" y="674"/>
      <point x="1128" y="874" type="curve"/>
      <point x="1366" y="874" type="line"/>
      <point x="1366" y="1082" type="line"/>
      <point x="472" y="1082" type="line" smooth="yes"/>
      <point x="233" y="1082"/>
      <point x="159" y="960"/>
      <point x="159" y="742" type="curve"/>
      <point x="255" y="742" type="line"/>
      <point x="267" y="819"/>
      <point x="307" y="873"/>
      <point x="387" y="874" type="curve"/>
      <point x="482" y="874" type="line"/>
      <point x="418" y="391" type="line" smooth="yes"/>
      <point x="390" y="173"/>
      <point x="257" y="112"/>
      <point x="171" y="112" type="curve"/>
      <point x="171" y="4" type="line"/>
      <point x="519" y="4"/>
      <point x="589" y="106"/>
      <point x="600" y="326" type="curve" smooth="yes"/>
      <point x="626" y="874" type="line"/>
      <point x="974" y="874" type="line"/>
      <point x="938" y="665"/>
      <point x="904" y="371"/>
      <point x="904" y="231" type="curve" smooth="yes"/>
      <point x="904" y="51"/>
      <point x="997" y="-13"/>
    </contour>
  </outline>
</glyph>
<glyph name="endash" format="1">
  <advance width="1096"/>
  <unicode hex="2013"/>
  <outline>
    <contour>
      <point x="-3" y="467" type="line"/>
      <point x="-3" y="648" type="line"/>
      <point x="1098" y="648" type="line"/>
      <point x="1098" y="467" type="line"/>
    </contour>
  </outline>
</glyph>
<glyph name="quotedblleft" format="1">
  <advance width="1024"/>
  <unicode hex="201C"/>
  <outline>
    <contour>
      <point x="574" y="871" type="line"/>
      <point x="745" y="1456" type="line"/>
      <point x="933" y="1456" type="line"/>
      <point x="822" y="871" type="line"/>
    </contour>
    <contour>
      <point x="144" y="871" type="line"/>
      <point x="325" y="1456" type="line"/>
      <point x="512" y="1456" type="line"/>
      <point x="400" y="871" type="line"/>
    </contour>
  </outline>
</glyph>
<glyph name="quotedblright" format="1">
  <advance width="1024"/>
  <unicode hex="201D"/>
  <outline>
    <contour>
      <point x="576" y="871" type="line"/>
      <point x="686" y="1456" type="line"/>
      <point x="932" y="1456" type="line"/>
      <point x="767" y="871" type="line"/>
    </contour>
    <contour>
      <point x="186" y="871" type="line"/>
      <point x="294" y="1456" type="line"/>
      <point x="542" y="1456" type="line"/>
      <point x="377" y="871" type="line"/>
    </contour>
  </outline>
</glyph>
<glyph name="dagger" format="1">
  <advance width="1022"/>
  <unicode hex="2020"/>
  <outline>
    <contour>
      <point x="416" y="64" type="line"/>
      <point x="416" y="878" type="line"/>
      <point x="90" y="878" type="line"/>
      <point x="90" y="1049" type="line"/>
      <point x="416" y="1049" type="line"/>
      <point x="416" y="1436" type="line"/>
      <point x="598" y="1436" type="line"/>
      <point x="598" y="1049" type="line"/>
      <point x="931" y="1049" type="line"/>
      <point x="931" y="878" type="line"/>
      <point x="595" y="878" type="line"/>
      <point x="595" y="64" type="line"/>
    </contour>
  </outline>
</glyph>
<glyph name="bullet" format="1">
  <advance width="989"/>
  <unicode hex="2022"/>
  <outline>
    <contour>
      <point x="497" y="366" type="curve" smooth="yes"/>
      <point x="297" y="366"/>
      <point x="163" y="514"/>
      <point x="163" y="686" type="curve" smooth="yes"/>
      <point x="163" y="861"/>
      <point x="309" y="1010"/>
      <point x="497" y="1010" type="curve" smooth="yes"/>
      <point x="693" y="1010"/>
      <point x="835" y="859"/>
      <point x="835" y="686" type="curve" smooth="yes"/>
      <point x="835" y="511"/>
      <point x="687" y="366"/>
    </contour>
  </outline>
</glyph>
<glyph name="perthousand" format="1">
  <advance width="2683"/>
  <unicode hex="2030"/>
  <outline>
    <component base="percent"/>
    <contour>
      <point x="2230" y="-22" type="curve" smooth="yes"/>
      <point x="2006" y="-22"/>
      <point x="1872" y="140"/>
      <point x="1872" y="355" type="curve" smooth="yes"/>
      <point x="1872" y="563"/>
      <point x="2007" y="732"/>
      <point x="2231" y="732" type="curve" smooth="yes"/>
      <point x="2456" y="732"/>
      <point x="2589" y="564"/>
      <point x="2589" y="355" type="curve" smooth="yes"/>
      <point x="2589" y="141"/>
      <point x="2453" y="-22"/>
    </contour>
    <contour>
      <point x="2230" y="122" type="curve" smooth="yes"/>
      <point x="2345" y="122"/>
      <point x="2397" y="201"/>
      <point x="2397" y="355" type="curve" smooth="yes"/>
      <point x="2397" y="502"/>
      <point x="2352" y="589"/>
      <point x="2231" y="589" type="curve" smooth="yes"/>
      <point x="2110" y="589"/>
      <point x="2064" y="500"/>
      <point x="2064" y="354" type="curve" smooth="yes"/>
      <point x="2064" y="199"/>
      <point x="2115" y="122"/>
    </contour>
  </outline>
</glyph>
<glyph name="Euro" format="1">
  <advance width="1492"/>
  <unicode hex="20AC"/>
  <outline>
    <contour>
      <point x="90" y="512" type="line"/>
      <point x="95" y="624" type="line"/>
      <point x="256" y="624" type="line"/>
      <point x="253" y="656"/>
      <point x="251" y="689"/>
      <point x="251" y="723" type="curve" smooth="yes"/>
      <point x="251" y="761"/>
      <point x="253" y="797"/>
      <point x="257" y="832" type="curve"/>
      <point x="89" y="832" type="line"/>
      <point x="94" y="950" type="line"/>
      <point x="278" y="950" type="line"/>
      <point x="365" y="1291"/>
      <point x="649" y="1483"/>
      <point x="960" y="1483" type="curve" smooth="yes"/>
      <point x="1130" y="1483"/>
      <point x="1291" y="1444"/>
      <point x="1436" y="1328" type="curve"/>
      <point x="1345" y="1169" type="line"/>
      <point x="1219" y="1259"/>
      <point x="1099" y="1286"/>
      <point x="979" y="1286" type="curve" smooth="yes"/>
      <point x="769" y="1286"/>
      <point x="600" y="1154"/>
      <point x="529" y="950" type="curve"/>
      <point x="1008" y="950" type="line"/>
      <point x="1001" y="832" type="line"/>
      <point x="501" y="832" type="line"/>
      <point x="496" y="798"/>
      <point x="493" y="763"/>
      <point x="493" y="726" type="curve" smooth="yes"/>
      <point x="493" y="691"/>
      <point x="496" y="657"/>
      <point x="500" y="624" type="curve"/>
      <point x="972" y="624" type="line"/>
      <point x="965" y="512" type="line"/>
      <point x="525" y="512" type="line"/>
      <point x="595" y="299"/>
      <point x="771" y="175"/>
      <point x="989" y="175" type="curve" smooth="yes"/>
      <point x="1121" y="175"/>
      <point x="1258" y="216"/>
      <point x="1395" y="322" type="curve"/>
      <point x="1472" y="139" type="line"/>
      <point x="1321" y="23"/>
      <point x="1150" y="-22"/>
      <point x="976" y="-22" type="curve" smooth="yes"/>
      <point x="659" y="-22"/>
      <point x="360" y="160"/>
      <point x="275" y="512" type="curve"/>
    </contour>
  </outline>
</glyph>
<glyph name="product" format="1">
  <advance width="1568"/>
  <unicode hex="220F"/>
  <outline>
    <contour>
      <point x="239" y="-100" type="line"/>
      <point x="239" y="1271" type="line"/>
      <point x="80" y="1271" type="line"/>
      <point x="80" y="1456" type="line"/>
      <point x="1440" y="1456" type="line"/>
      <point x="1441" y="1271" type="line"/>
      <point x="1308" y="1271" type="line"/>
      <point x="1308" y="-100" type="line"/>
      <point x="1061" y="-100" type="line"/>
      <point x="1061" y="1271" type="line"/>
      <point x="480" y="1271" type="line"/>
      <point x="480" y="-100" type="line"/>
    </contour>
  </outline>
</glyph>
<glyph name="summation" format="1">
  <advance width="1236"/>
  <unicode hex="2211"/>
  <outline>
    <contour>
      <point x="114" y="-179" type="line"/>
      <point x="114" y="-60" type="line"/>
      <point x="619" y="646" type="line"/>
      <point x="136" y="1340" type="line"/>
      <point x="136" y="1456" type="line"/>
      <point x="1108" y="1456" type="line"/>
      <point x="1108" y="1274" type="line"/>
      <point x="441" y="1274" type="line"/>
      <point x="876" y="650" type="line"/>
      <point x="422" y="9" type="line"/>
      <point x="1150" y="9" type="line"/>
      <point x="1150" y="-179" type="line"/>
    </contour>
  </outline>
</glyph>
<glyph name="radical" format="1">
  <advance width="1314"/>
  <unicode hex="221A"/>
  <outline>
    <contour>
      <point x="607" y="-146" type="line"/>
      <point x="294" y="651" type="line"/>
      <point x="291" y="650"/>
      <point x="130" y="621"/>
      <point x="130" y="621" type="curve"/>
      <point x="93" y="781" type="line"/>
      <point x="441" y="839" type="line"/>
      <point x="680" y="199" type="line"/>
      <point x="1048" y="1566" type="line"/>
      <point x="1248" y="1566" type="line"/>
      <point x="792" y="-146" type="line"/>
    </contour>
  </outline>
</glyph>
<glyph name="infinity" format="1">
  <advance width="1736"/>
  <unicode hex="221E"/>
  <outline>
    <contour>
      <point x="1276" y="377" type="curve" smooth="yes"/>
      <point x="1422" y="377"/>
      <point x="1480" y="486"/>
      <point x="1480" y="625" type="curve" smooth="yes"/>
      <point x="1480" y="731"/>
      <point x="1399" y="822"/>
      <point x="1271" y="822" type="curve" smooth="yes"/>
      <point x="1143" y="822"/>
      <point x="1030" y="715"/>
      <point x="949" y="599" type="curve"/>
      <point x="1065" y="454"/>
      <point x="1156" y="377"/>
    </contour>
    <contour>
      <point x="478" y="377" type="curve" smooth="yes"/>
      <point x="604" y="377"/>
      <point x="709" y="476"/>
      <point x="798" y="597" type="curve"/>
      <point x="709" y="724"/>
      <point x="604" y="822"/>
      <point x="468" y="822" type="curve" smooth="yes"/>
      <point x="328" y="822"/>
      <point x="254" y="721"/>
      <point x="254" y="599" type="curve" smooth="yes"/>
      <point x="254" y="487"/>
      <point x="338" y="377"/>
    </contour>
    <contour>
      <point x="465" y="233" type="curve" smooth="yes"/>
      <point x="246" y="233"/>
      <point x="96" y="412"/>
      <point x="96" y="622" type="curve" smooth="yes"/>
      <point x="96" y="813"/>
      <point x="268" y="966"/>
      <point x="460" y="966" type="curve" smooth="yes"/>
      <point x="625" y="966"/>
      <point x="754" y="869"/>
      <point x="872" y="711" type="curve"/>
      <point x="984" y="865"/>
      <point x="1106" y="966"/>
      <point x="1276" y="966" type="curve" smooth="yes"/>
      <point x="1498" y="966"/>
      <point x="1639" y="814"/>
      <point x="1639" y="603" type="curve" smooth="yes"/>
      <point x="1639" y="384"/>
      <point x="1470" y="233"/>
      <point x="1274" y="233" type="curve" smooth="yes"/>
      <point x="1125" y="233"/>
      <point x="1004" y="313"/>
      <point x="870" y="486" type="curve"/>
      <point x="754" y="334"/>
      <point x="627" y="233"/>
    </contour>
  </outline>
</glyph>
<glyph name="notequal" format="1">
  <advance width="1377"/>
  <unicode hex="2260"/>
  <outline>
    <contour>
      <point x="499" y="39" type="line"/>
      <point x="326" y="66" type="line"/>
      <point x="441" y="308" type="line"/>
      <point x="165" y="308" type="line"/>
      <point x="165" y="476" type="line"/>
      <point x="527" y="476" type="line"/>
      <point x="638" y="689" type="line"/>
      <point x="165" y="689" type="line"/>
      <point x="165" y="858" type="line"/>
      <point x="720" y="858" type="line"/>
      <point x="849" y="1122" type="line"/>
      <point x="1028" y="1096" type="line"/>
      <point x="910" y="858" type="line"/>
      <point x="1220" y="858" type="line"/>
      <point x="1220" y="689" type="line"/>
      <point x="830" y="689" type="line"/>
      <point x="716" y="476" type="line"/>
      <point x="1220" y="476" type="line"/>
      <point x="1220" y="308" type="line"/>
      <point x="632" y="308" type="line"/>
    </contour>
  </outline>
</glyph>
<glyph name="lessequal" format="1">
  <advance width="1351"/>
  <unicode hex="2264"/>
  <outline>
    <contour>
      <point x="127" y="0" type="line"/>
      <point x="127" y="163" type="line"/>
      <point x="1160" y="163" type="line"/>
      <point x="1160" y="0" type="line"/>
    </contour>
    <contour>
      <point x="1141" y="244" type="line"/>
      <point x="136" y="714" type="line"/>
      <point x="136" y="822" type="line"/>
      <point x="1145" y="1294" type="line"/>
      <point x="1145" y="1088" type="line"/>
      <point x="428" y="768" type="line"/>
      <point x="1141" y="446" type="line"/>
    </contour>
  </outline>
</glyph>
<glyph name="caron.alt" format="1">
  <advance width="600"/>
  <outline>
    <contour>
      <point x="16" y="1026" type="move" name="_caron.alt"/>
    </contour>
    <contour>
      <point x="302" y="963" type="line"/>
      <point x="413" y="1456" type="line"/>
      <point x="665" y="1456" type="line"/>
      <point x="490" y="963" type="line"/>
    </contour>
  </outline>
</glyph>
